<svg width="50" height="55" viewBox="0 0 50 55" fill="none" xmlns="http://www.w3.org/2000/svg">
<g clip-path="url(#clip0_112_654)">
<path d="M25.0384 0.0306865C28.4422 0.0306865 31.8461 0.107277 35.25 5.03736e-05C37.8259 -0.07654 40.3864 1.80758 40.3558 5.14692C40.3098 11.0444 40.3558 16.9572 40.3251 22.8546C40.3251 23.3295 40.4631 23.5899 40.8771 23.835C43.545 25.3515 46.1822 26.8986 48.8348 28.4457C50.368 29.3495 50.3834 30.8353 48.8348 31.7391C46.1515 33.3015 43.4683 34.864 40.7851 36.4111C40.4324 36.6102 40.3251 36.8247 40.3404 37.223C40.3558 41.4201 40.3558 45.6326 40.3404 49.8297C40.3404 51.9436 39.4205 53.5214 37.4732 54.4405C36.8446 54.7315 36.1699 54.8234 35.4646 54.8234C28.5496 54.8234 21.6192 54.7775 14.7041 54.8388C12.2816 54.8694 9.61366 53.1078 9.64432 49.7532C9.67499 45.5866 9.64432 41.4201 9.65966 37.2689C9.65966 36.84 9.53699 36.5949 9.15368 36.3805C6.47045 34.8487 3.81789 33.2862 1.15 31.7391C-0.383274 30.8353 -0.383274 29.3495 1.16533 28.4457C3.81789 26.8986 6.45512 25.3515 9.12301 23.8197C9.52166 23.5899 9.67499 23.3448 9.67499 22.8853C9.64432 16.9418 9.65966 10.9831 9.65966 5.02438C9.65966 2.6654 10.9476 0.873181 13.0789 0.229821C13.5388 0.0919588 14.0141 0.0306865 14.4895 0.0306865C18.0007 0.0306865 21.5119 0.0306865 25.0384 0.0306865Z" fill="#010102"/>
<path d="M39.1601 27.4194C39.1601 34.864 39.1447 42.3086 39.1601 49.7685C39.1601 51.3463 38.5928 52.5411 37.1821 53.2917C36.6762 53.5674 36.1089 53.6746 35.5262 53.6746C28.5038 53.6746 21.4968 53.6746 14.4744 53.6746C12.4658 53.6746 10.9632 52.2194 10.8559 50.228C10.8405 50.0595 10.8405 49.891 10.8405 49.7072C10.8405 34.8487 10.8405 19.9902 10.8252 5.13163C10.8252 3.64578 11.3005 2.45097 12.6038 1.66974C13.1558 1.33275 13.7537 1.17957 14.3977 1.17957C21.4508 1.17957 28.5038 1.17957 35.5569 1.17957C37.4888 1.17957 39.0067 2.63478 39.1141 4.56486C39.1447 5.10099 39.1294 5.63713 39.1294 6.17326C39.1601 13.2502 39.1601 20.3272 39.1601 27.4194Z" fill="#588FCB"/>
<path d="M40.3408 35.3236C40.3408 31.8158 40.3408 28.3845 40.3408 24.9533C40.5401 24.892 40.6321 25.0298 40.7548 25.1064C43.254 26.5617 45.7533 28.0169 48.2525 29.4721C48.9885 29.901 48.9885 30.3146 48.2525 30.7435C45.7226 32.214 43.1927 33.6846 40.6475 35.1551C40.5861 35.1857 40.5095 35.2317 40.3408 35.3236Z" fill="#DAE6F1"/>
<path d="M9.64401 35.3235C8.58605 34.7108 7.58942 34.1287 6.5928 33.5466C4.9522 32.5969 3.3116 31.6472 1.67099 30.6821C1.05769 30.3298 1.04235 29.8703 1.625 29.5333C4.21623 28.0168 6.82279 26.5156 9.41402 24.9991C9.47535 24.9685 9.53668 24.9379 9.65934 24.8766C9.64401 28.3691 9.64401 31.8004 9.64401 35.3235Z" fill="#DAE6F1"/>
<path d="M37.9945 27.4195C37.9945 34.8334 37.9639 42.2473 38.0252 49.6613C38.0405 51.6833 36.6452 52.5564 35.1273 52.5411C28.3042 52.4951 21.4812 52.5258 14.6428 52.5258C13.3855 52.5258 12.4962 51.9284 12.1129 50.8408C12.0056 50.5191 12.0056 50.1974 12.0056 49.8758C12.0056 34.8947 12.0209 19.9289 11.9902 4.94784C11.9902 3.33944 13.2322 2.28249 14.6581 2.31313C16.4367 2.35908 18.2153 2.32844 19.9939 2.32844C21.1899 2.32844 22.1098 2.8033 22.7691 3.82962C23.9344 5.66778 26.0657 5.65247 27.231 3.82962C27.8749 2.81862 28.7642 2.32844 29.9449 2.32844C31.7234 2.32844 33.502 2.3744 35.2806 2.31313C36.7066 2.26717 38.0099 3.29348 37.9945 5.00911C37.9639 12.4843 37.9945 19.9442 37.9945 27.4195Z" fill="#010101"/>
<path d="M13.1709 21.476C13.1709 21.2002 13.1709 21.0317 13.1709 20.8632C13.1709 15.6091 13.1709 10.355 13.1709 5.11627C13.1709 3.89082 13.5849 3.46191 14.8115 3.46191C16.5288 3.46191 18.246 3.46191 19.9786 3.46191C20.7913 3.46191 21.3892 3.76828 21.8339 4.47291C23.4285 6.96975 26.6024 6.96975 28.197 4.47291C28.6263 3.79891 29.2089 3.46191 29.9909 3.47723C31.7848 3.47723 33.5787 3.47723 35.3727 3.47723C36.354 3.47723 36.8446 3.95209 36.8446 4.90181C36.8446 10.3091 36.8446 15.7011 36.8446 21.1083C36.8446 21.2002 36.8293 21.2922 36.8293 21.4453C36.1393 21.0471 35.5107 20.6794 34.8667 20.3118C34.6827 20.2046 34.6827 20.0514 34.6827 19.8676C34.6827 19.2242 34.6674 18.5655 34.698 17.9222C34.7134 17.5392 34.6214 17.2941 34.2687 17.095C31.3862 15.4406 28.519 13.7863 25.6824 12.1013C25.1918 11.8103 24.8238 11.8256 24.3331 12.1166C21.4812 13.8016 18.614 15.456 15.7468 17.1103C15.4248 17.2941 15.2715 17.5239 15.3175 17.8915C15.3481 18.0754 15.3481 18.2745 15.3328 18.4583C15.3021 19.0404 15.5781 19.791 15.2255 20.1739C14.7042 20.7407 13.9069 21.0317 13.1709 21.476Z" fill="#A1DDF1"/>
<path d="M34.6674 21.5526C35.3573 21.9509 35.94 22.3032 36.5533 22.6249C36.7986 22.7627 36.8446 22.9312 36.8446 23.1763C36.8446 27.7871 36.8446 32.3825 36.8446 36.9932C36.8446 37.2843 36.7373 37.4375 36.5073 37.5753C32.8274 39.7045 29.1629 41.8337 25.4984 43.9783C25.1304 44.1927 24.8544 44.1621 24.5018 43.963C20.8679 41.8337 17.2341 39.7352 13.5849 37.6213C13.2782 37.4528 13.1709 37.2536 13.1709 36.9013C13.1862 32.3519 13.1862 27.8024 13.1709 23.2682C13.1709 22.9159 13.2782 22.7168 13.6002 22.5636C14.1675 22.2726 14.7195 21.9356 15.3481 21.5679C15.3481 23.3601 15.4555 25.0911 15.3175 26.7761C15.1948 28.2007 15.6701 28.9972 16.9581 29.6559C19.5493 31.0039 22.0485 32.5663 24.5784 34.0522C24.8851 34.236 25.1611 34.236 25.4831 34.0522C28.3656 32.3672 31.2328 30.6975 34.1307 29.0278C34.5754 28.7827 34.7287 28.4764 34.7287 27.9709C34.6674 25.8723 34.6674 23.7584 34.6674 21.5526Z" fill="#DAE6F1"/>
<path d="M13.1709 38.7089C14.7502 39.6279 16.2528 40.5011 17.74 41.3589C19.7333 42.5231 21.7419 43.6566 23.7045 44.8514C24.6091 45.4029 25.4064 45.3875 26.311 44.8514C29.6536 42.8754 33.0114 40.93 36.3693 38.9846C36.492 38.908 36.63 38.8467 36.7526 38.7701C36.8906 38.954 36.8293 39.1225 36.8293 39.2909C36.8293 42.7835 36.8293 46.276 36.8293 49.7685C36.8293 50.948 36.4 51.3769 35.204 51.3769C28.3963 51.3769 21.5886 51.3769 14.7962 51.3769C13.6002 51.3769 13.1709 50.948 13.1709 49.7685C13.1709 46.1075 13.1709 42.4618 13.1709 38.7089Z" fill="#A1DDF1"/>
<path d="M33.5177 18.7646C33.5177 21.7823 33.5177 24.7387 33.5177 27.7104C33.5177 27.8789 33.5024 28.0321 33.3184 28.1393C30.7579 29.6098 28.2126 31.0957 25.6674 32.5816C25.5294 32.4131 25.5907 32.2599 25.5907 32.1067C25.5907 29.3188 25.5907 26.5309 25.5907 23.743C25.5907 23.4826 25.6061 23.2988 25.8821 23.1303C28.366 21.7057 30.8345 20.2658 33.3031 18.8259C33.3338 18.8259 33.3798 18.8106 33.5177 18.7646Z" fill="#F6C94E"/>
<path d="M16.5598 18.7494C17.3571 19.2089 18.139 19.6532 18.921 20.1127C20.6229 21.0931 22.3095 22.0887 24.0115 23.0691C24.2568 23.207 24.4255 23.3295 24.4255 23.6665C24.4101 26.5463 24.4101 29.4414 24.4101 32.3212C24.4101 32.3825 24.3948 32.4591 24.3948 32.6122C23.0455 31.831 21.7422 31.0651 20.4543 30.3145C19.2583 29.6099 18.047 28.9206 16.8358 28.216C16.6364 28.0934 16.4678 28.0015 16.4678 27.7105C16.4831 24.7694 16.4831 21.8283 16.4831 18.8873C16.4984 18.8566 16.5291 18.826 16.5598 18.7494Z" fill="#F9A267"/>
<path d="M32.9658 17.6925C31.3711 18.6269 29.8685 19.5 28.3506 20.3731C27.3693 20.9552 26.3727 21.5067 25.3914 22.1041C25.1307 22.2572 24.9314 22.2879 24.6554 22.1347C22.1869 20.6948 19.7183 19.2549 17.2497 17.815C17.2037 17.7844 17.1731 17.7537 17.0811 17.6771C17.5104 17.432 17.8937 17.2023 18.2923 16.9725C20.3929 15.7471 22.5088 14.5216 24.6094 13.2962C24.8241 13.1736 24.9927 13.0664 25.2841 13.2196C27.768 14.6748 30.2519 16.13 32.7358 17.5699C32.7971 17.6005 32.8431 17.6159 32.9658 17.6925Z" fill="#FCDD86"/>
</g>
<defs>
<clipPath id="clip0_112_654">
<rect width="50" height="54.8387" fill="white"/>
</clipPath>
</defs>
</svg>
