<svg width="29" height="29" viewBox="0 0 29 29" fill="none" xmlns="http://www.w3.org/2000/svg">
<path d="M15 6.81274C11 6.81274 7.8125 10.0627 7.8125 14.0002C7.8125 18.0002 11 21.1877 15 21.1877C18.9375 21.1877 22.1875 18.0002 22.1875 14.0002C22.1875 10.0627 18.9375 6.81274 15 6.81274ZM15 18.6877C12.4375 18.6877 10.3125 16.6252 10.3125 14.0002C10.3125 11.4377 12.375 9.37524 15 9.37524C17.5625 9.37524 19.625 11.4377 19.625 14.0002C19.625 16.6252 17.5625 18.6877 15 18.6877ZM24.125 6.56274C24.125 7.50024 23.375 8.25024 22.4375 8.25024C21.5 8.25024 20.75 7.50024 20.75 6.56274C20.75 5.62524 21.5 4.87524 22.4375 4.87524C23.375 4.87524 24.125 5.62524 24.125 6.56274ZM28.875 8.25024C28.75 6.00024 28.25 4.00024 26.625 2.37524C25 0.750244 23 0.250244 20.75 0.125244C18.4375 0.000244141 11.5 0.000244141 9.1875 0.125244C6.9375 0.250244 5 0.750244 3.3125 2.37524C1.6875 4.00024 1.1875 6.00024 1.0625 8.25024C0.9375 10.5627 0.9375 17.5002 1.0625 19.8127C1.1875 22.0627 1.6875 24.0002 3.3125 25.6877C5 27.3127 6.9375 27.8127 9.1875 27.9377C11.5 28.0627 18.4375 28.0627 20.75 27.9377C23 27.8127 25 27.3127 26.625 25.6877C28.25 24.0002 28.75 22.0627 28.875 19.8127C29 17.5002 29 10.5627 28.875 8.25024ZM25.875 22.2502C25.4375 23.5002 24.4375 24.4377 23.25 24.9377C21.375 25.6877 17 25.5002 15 25.5002C12.9375 25.5002 8.5625 25.6877 6.75 24.9377C5.5 24.4377 4.5625 23.5002 4.0625 22.2502C3.3125 20.4377 3.5 16.0627 3.5 14.0002C3.5 12.0002 3.3125 7.62524 4.0625 5.75024C4.5625 4.56274 5.5 3.62524 6.75 3.12524C8.5625 2.37524 12.9375 2.56274 15 2.56274C17 2.56274 21.375 2.37524 23.25 3.12524C24.4375 3.56274 25.375 4.56274 25.875 5.75024C26.625 7.62524 26.4375 12.0002 26.4375 14.0002C26.4375 16.0627 26.625 20.4377 25.875 22.2502Z" fill="#FFC815"/>
</svg>
