<svg width="21" height="22" viewBox="0 0 21 22" fill="none" xmlns="http://www.w3.org/2000/svg">
<path d="M4.6875 22.0002H0.328125V7.98462H4.6875V22.0002ZM2.48438 6.10962C1.125 6.10962 0 4.93774 0 3.53149C0 1.60962 2.0625 0.390869 3.75 1.37524C4.54688 1.79712 5.01562 2.64087 5.01562 3.53149C5.01562 4.93774 3.89062 6.10962 2.48438 6.10962ZM20.9531 22.0002H16.6406V15.2034C16.6406 13.5627 16.5938 11.5002 14.3438 11.5002C12.0938 11.5002 11.7656 13.2346 11.7656 15.0627V22.0002H7.40625V7.98462H11.5781V9.90649H11.625C12.2344 8.82837 13.6406 7.65649 15.75 7.65649C20.1562 7.65649 21 10.5627 21 14.3127V22.0002H20.9531Z" fill="#FFC815"/>
</svg>
