<svg width="15" height="21" viewBox="0 0 15 21" fill="none" xmlns="http://www.w3.org/2000/svg">
<path d="M6.71875 20.1096C7.07031 20.6565 7.89062 20.6565 8.24219 20.1096C13.9453 11.9065 15 11.0471 15 8.00024C15 3.85962 11.6406 0.500244 7.5 0.500244C3.32031 0.500244 0 3.85962 0 8.00024C0 11.0471 1.01562 11.9065 6.71875 20.1096ZM7.5 11.1252C5.74219 11.1252 4.375 9.75806 4.375 8.00024C4.375 6.28149 5.74219 4.87524 7.5 4.87524C9.21875 4.87524 10.625 6.28149 10.625 8.00024C10.625 9.75806 9.21875 11.1252 7.5 11.1252Z" fill="#FFC815"/>
</svg>
