<svg width="55" height="55" viewBox="0 0 55 55" fill="none" xmlns="http://www.w3.org/2000/svg">
<path d="M23.7574 53.1481C24.4615 53.2552 24.783 53.592 24.737 54.1584C24.6911 54.7095 24.3084 55.0003 23.6043 55.0003C17.9558 55.0003 12.3073 55.0003 6.65884 55.0003C5.80162 55.0003 5.51077 54.7095 5.51077 53.8216C5.51077 50.4387 5.54139 47.071 5.49547 43.688C5.46485 40.5806 6.45984 37.8712 8.46513 35.5138C8.52636 35.4373 8.58759 35.376 8.64882 35.2995C10.1643 33.5085 10.1643 33.5085 10.0877 31.1665C10.0877 30.9675 10.0418 30.8144 9.88873 30.6613C8.38859 29.1306 6.88845 27.5845 5.38831 26.0231C5.20462 25.8241 5.05155 25.8241 4.79132 25.8854C3.62795 26.2068 2.61765 25.8854 1.88289 24.9516C1.13282 24.0178 1.04097 22.9616 1.59204 21.9054C1.74512 21.6146 1.68389 21.4309 1.54612 21.1859C1.01036 20.2369 0.275594 19.3643 0.0919036 18.2469C-0.168325 16.6549 0.107211 15.2313 1.08689 13.8842C3.01564 11.2513 5.52608 9.58282 8.61821 8.61845C11.2358 7.80715 13.7922 6.85808 16.3791 5.97024C16.9608 5.77124 17.466 5.44978 17.8946 4.99056C18.5222 4.30172 19.1651 3.62819 19.8233 2.95466C20.4816 2.28112 21.201 2.4342 21.5378 3.32204C22.0429 4.65379 22.5328 5.98555 23.0073 7.33261C23.5584 8.84806 23.39 10.287 22.5021 11.634C22.3338 11.9096 22.1501 12.1698 21.9511 12.4759C22.9308 12.9046 23.4053 13.7006 23.7267 14.6802C24.0329 15.6446 24.4156 16.5631 24.7524 17.5274C25.1963 18.8286 24.8289 20.0073 23.6961 20.7726C23.4053 20.9716 23.4206 21.0941 23.6043 21.339C24.0023 21.8901 24.385 22.4718 24.7524 23.0382C25.1197 23.6045 25.0585 24.0025 24.5534 24.4464C24.4615 24.523 24.385 24.5995 24.2931 24.6608C23.3594 25.3343 22.6552 25.9925 22.5481 27.3855C22.3338 30.0796 20.6193 31.7941 18.0783 32.6819C17.8793 32.7431 17.619 32.7737 17.5119 32.9115C17.2823 33.1871 17.3894 33.4473 17.6956 33.6616C18.6906 34.3657 19.7162 35.0393 20.5887 35.8965C22.2419 37.5344 23.3441 39.4631 23.8492 41.744C24.0329 42.5247 23.8951 42.8002 23.1604 43.1217C22.6246 43.2594 22.2725 43.091 22.0429 42.5553C21.8898 42.2032 21.8133 41.8205 21.7062 41.4684C21.0785 39.3407 19.7621 37.6875 18.0323 36.3557C17.818 36.2026 17.619 36.0189 17.4966 36.4476C16.9608 38.361 15.0168 39.2488 12.8737 38.3151C12.0471 37.963 11.3429 37.4579 10.8378 36.6925C10.6082 36.3251 10.4245 36.3557 10.149 36.6619C8.41921 38.5753 7.51606 40.8408 7.50075 43.4278C7.48545 46.3668 7.50075 49.3059 7.50075 52.2449C7.50075 52.9797 7.53137 53.0103 8.28144 53.0103C13.1339 53.0103 17.9711 53.0103 22.8236 53.0103C23.1298 53.0103 23.4665 52.9644 23.7574 53.1481Z" fill="#010101"/>
<path d="M48.7086 10.9144C48.1576 11.0369 47.7289 11.2512 47.3003 11.4808C46.7186 11.787 46.1982 11.6645 45.9226 11.1593C45.6624 10.6848 45.8308 10.1797 46.3819 9.87351C47.086 9.47551 47.8055 9.15406 48.6015 9.01629C49.7955 8.80198 50.6833 9.62859 50.5608 10.8226C50.4231 12.1543 49.7495 13.2565 49.0301 14.3433C48.7698 14.726 48.7698 14.9862 49.0301 15.3689C52.5355 20.9715 49.1372 28.2579 42.6009 29.2375C40.3813 29.5743 38.3148 29.1457 36.432 27.9517C36.0187 27.6915 35.7737 27.7374 35.4064 27.9823C34.3501 28.6712 33.2786 29.3141 31.9928 29.4978C30.7529 29.6815 29.865 28.7783 30.0793 27.5384C30.2171 26.7271 30.5539 25.977 30.9672 25.2729C31.258 24.7677 31.7785 24.6147 32.2377 24.8749C32.6969 25.1351 32.85 25.6403 32.5898 26.1454C32.3602 26.6047 32.1152 27.0639 31.9622 27.6303C32.8347 27.37 33.5848 26.972 34.3042 26.4822C34.5951 26.2832 34.3195 26.1607 34.2124 26.0383C32.7888 24.3085 32.0846 22.3185 32.0999 20.0836C32.1152 15.5373 35.6054 11.6645 40.1058 11.1134C42.7387 10.792 45.0807 11.4961 47.1166 13.1646C47.3922 13.3942 47.4993 13.333 47.6524 13.0728C48.081 12.4146 48.4178 11.7257 48.7086 10.9144Z" fill="#010101"/>
<path d="M23.39 43.9328C24.2472 43.8716 25.0279 43.5808 25.7168 43.0909C28.0741 41.453 30.4315 39.7998 32.7889 38.1466C32.9725 38.0241 33.0797 37.8864 33.1256 37.6567C33.3093 36.4781 33.5083 35.2994 33.692 34.1054C33.8604 33.0798 34.5186 32.2991 35.483 32.1154C36.478 31.9317 37.274 32.2838 37.8556 33.1104C38.1618 33.5696 38.4833 34.0136 38.7741 34.4881C38.9272 34.7636 39.1109 34.8249 39.417 34.8249C41.2845 34.8095 43.1521 34.8095 45.0196 34.8249C46.3207 34.8249 47.3616 35.6515 47.6219 36.8761C47.8821 38.0547 47.2698 39.2487 46.0911 39.7692C43.2439 41.0091 40.4426 42.3868 37.3505 42.9532C37.1056 42.9991 36.9372 43.1215 36.7535 43.2593C34.5186 44.9431 32.2378 46.581 30.0335 48.3108C28.1354 49.7956 26.1607 51.0508 23.6962 51.3264C23.1451 51.6172 22.5328 51.4948 21.9664 51.4488C20.252 51.2958 18.6753 50.7141 17.2364 49.7497C15.3689 48.4945 13.5013 47.2546 11.6338 46.0147C11.5726 45.9687 11.5114 45.9381 11.4501 45.8922C10.945 45.5095 10.7613 45.0656 10.945 44.5605C11.1134 44.0859 11.4807 43.8869 12.1237 43.8869C12.4298 43.9482 12.6747 44.1471 12.9197 44.3155C14.8943 45.6167 16.8078 47.0097 18.8437 48.219C21.599 49.8722 24.385 49.7803 27.0485 48.0046C29.314 46.4892 31.4265 44.7594 33.6155 43.1215C33.9981 42.8307 34.3808 42.5399 34.7635 42.2643C35.0544 42.05 35.1003 41.8357 34.8707 41.5449C34.5645 41.1469 34.2584 40.7642 33.9828 40.3509C33.7685 40.0294 33.5848 40.0294 33.294 40.2284C31.9776 41.1622 30.6458 42.0959 29.314 43.0297C28.4721 43.6267 27.6302 44.2237 26.773 44.7901C25.6249 45.5401 24.3544 45.9534 22.992 45.9687C21.5531 45.9994 20.206 45.5861 18.9814 44.7901C17.6956 43.9635 16.4404 43.1062 15.1699 42.249C14.7566 41.9735 14.4963 41.6367 14.5423 41.1163C14.8331 40.2131 15.5066 39.9376 16.3026 40.458C17.4354 41.1775 18.5528 41.9429 19.6703 42.6929C20.6653 43.3818 21.7215 43.8257 22.9461 43.8563C23.0992 43.8716 23.2216 43.9788 23.39 43.9328Z" fill="#010101"/>
<path d="M12.1389 43.9942C11.6185 43.9636 11.1746 44.1473 11.0368 44.6831C10.899 45.2035 11.1746 45.5403 11.6032 45.8158C13.5013 47.0711 15.3994 48.3263 17.2823 49.6121C19.2263 50.9286 21.3694 51.4643 23.6961 51.3419C23.7114 51.9389 23.7421 52.5512 23.7574 53.1482C21.0632 53.1482 18.3844 53.1635 15.6903 53.1635C13.0727 53.1635 10.4704 53.1482 7.85283 53.1788C7.40891 53.1788 7.31706 53.0563 7.33237 52.643C7.34768 49.5662 7.33237 46.5047 7.34768 43.4279C7.36299 40.8868 8.2049 38.6672 9.85812 36.7538C10.0724 36.4936 10.2255 36.0496 10.547 36.0496C10.746 36.0649 10.9143 36.5242 11.1133 36.7691C12.093 37.9631 13.3635 38.5601 14.9096 38.4988C16.2567 38.4376 17.2517 37.3661 17.4813 35.7588C19.5325 37.0752 21.002 38.8203 21.798 41.1317C21.9205 41.4838 22.0429 41.8512 22.1195 42.2186C22.2266 42.8309 22.594 43.0911 23.191 43.1064C23.2369 43.3819 23.1604 43.7034 23.4206 43.933C22.1654 44.132 21.0632 43.7493 20.0376 43.0911C18.7977 42.2798 17.5731 41.4532 16.3332 40.6266C15.5525 40.1061 15.0627 40.2592 14.6953 41.147C14.5881 41.2848 14.4351 41.3613 14.2667 41.392C13.1033 41.6675 12.5216 42.4482 12.3379 43.5809C12.2767 43.734 12.2767 43.8871 12.1389 43.9942Z" fill="#6F6EB3"/>
<path d="M28.4108 11.0215C29.2833 11.0215 30.1712 11.0215 31.0437 11.0215C31.9315 11.0368 32.3448 11.7256 31.9009 12.5063C31.0284 13.9758 30.1559 15.4454 29.2527 16.9149C28.7935 17.6497 28.0128 17.6497 27.5689 16.9149C26.681 15.4607 25.7932 13.9911 24.9207 12.5216C24.4768 11.7562 24.8901 11.0521 25.7779 11.0521C26.6657 11.0215 27.5383 11.0215 28.4108 11.0215Z" fill="#010101"/>
<path d="M41.2386 3.68929C41.2539 3.98013 41.1315 4.20975 40.9325 4.39344C40.0599 5.26597 39.1874 6.1538 38.2996 7.01102C37.8097 7.48556 37.3352 7.48556 36.8454 7.01102C35.9575 6.13849 35.085 5.26597 34.2125 4.37813C33.7685 3.9189 33.7685 3.42906 34.2125 2.96983C35.085 2.06669 35.9728 1.17885 36.876 0.306322C37.3199 -0.12229 37.8097 -0.12229 38.2383 0.306322C39.1568 1.19416 40.0446 2.11261 40.9478 3.01576C41.1468 3.19945 41.2539 3.42906 41.2386 3.68929Z" fill="#010101"/>
<path d="M51.2956 7.363C50.423 7.363 49.5352 7.363 48.6627 7.363C48.2647 7.363 47.9585 7.24054 47.7595 6.88847C47.5605 6.50578 47.6218 6.16902 47.882 5.83225C48.7698 4.65357 49.6271 3.47489 50.5149 2.31152C50.9741 1.71452 51.663 1.71452 52.1069 2.31152C52.9947 3.47489 53.8672 4.65357 54.7398 5.83225C54.9847 6.16902 55.0612 6.52109 54.8622 6.88847C54.6785 7.24054 54.3571 7.37831 53.9591 7.37831C53.0866 7.3477 52.1834 7.363 51.2956 7.363Z" fill="#010101"/>
<path d="M54.9848 30.2785C54.9848 31.8092 53.7602 33.0185 52.2141 33.0185C50.6834 33.0185 49.4741 31.7939 49.4894 30.2478C49.4894 28.7018 50.7293 27.5078 52.306 27.5231C53.8061 27.5231 55.0001 28.763 54.9848 30.2785Z" fill="#010201"/>
<path d="M20.2519 5.15869C20.6499 6.26083 21.0632 7.27113 21.3694 8.31204C21.599 9.06211 21.4612 9.82749 21.0326 10.501C20.6499 11.098 20.2519 11.6797 19.8846 12.2767C19.7468 12.5063 19.5325 12.6135 19.3029 12.7053C17.9099 13.2105 16.5169 13.7309 15.1239 14.2208C13.9452 14.6341 13.1646 15.3841 13.0421 16.67C13.0268 16.9149 12.889 16.9914 12.69 17.068C9.67443 18.1701 6.65885 19.2722 3.64326 20.3897C3.39834 20.4815 3.22996 20.4662 3.07688 20.206C2.80135 19.7009 2.46458 19.2416 2.20435 18.7212C1.59205 17.4506 1.6839 16.2567 2.4952 15.0627C4.28618 12.5063 6.75069 11.098 9.64382 10.2102C11.9553 9.50603 14.2055 8.6182 16.5016 7.88343C17.7568 7.47013 18.813 6.82721 19.655 5.80161C19.8233 5.60261 20.007 5.41892 20.2519 5.15869Z" fill="#FFC815"/>
<path d="M20.3744 28.4264C19.8846 29.4673 19.1651 30.202 18.1701 30.6154C17.3129 30.9827 16.4404 31.3042 15.5679 31.595C14.4657 31.9471 13.5473 31.5644 12.69 30.8297C12.139 30.3551 11.9706 29.9571 12.2461 29.253C12.9503 27.462 12.8737 25.5486 12.8125 23.6657C12.7972 23.084 12.935 22.732 13.532 22.6248C13.6544 22.6095 13.7769 22.5483 13.8993 22.487C14.481 22.2115 14.9556 22.1197 15.5526 22.6554C16.1955 23.2371 17.0833 23.2677 17.9252 22.9616C19.0121 22.5636 20.0989 22.1962 21.1857 21.7829C21.4919 21.6604 21.6603 21.6911 21.8286 21.9972C22.0583 22.3952 22.3032 22.7779 22.594 23.13C22.8389 23.4208 22.7471 23.5739 22.4869 23.7576C22.2879 23.8953 22.1042 24.079 21.9052 24.2168C21.1398 24.676 20.6959 25.3036 20.8643 26.2374C20.9255 26.5895 20.7418 26.6507 20.4357 26.6354C20.0377 26.6201 19.6397 26.6201 19.2417 26.6354C18.7059 26.666 18.3538 27.0487 18.3538 27.5538C18.3538 28.059 18.7212 28.4264 19.257 28.457C19.4407 28.4723 19.6397 28.457 19.8234 28.457C19.9764 28.4264 20.1448 28.4264 20.3744 28.4264Z" fill="#FDD3B6"/>
<path d="M4.08712 24.1708C3.52074 24.1096 3.21459 23.8187 3.12275 23.3442C3.0309 22.8391 3.27582 22.487 3.73505 22.3186C4.6535 21.9665 5.58726 21.6451 6.52102 21.293C8.69469 20.497 10.8684 19.7163 13.042 18.905C13.3941 18.7826 13.5625 18.7826 13.6543 19.1653C13.7615 19.6092 14.1901 20.0837 14.0064 20.4205C13.8533 20.7113 13.2563 20.7725 12.843 20.9256C10.103 21.9512 7.36294 22.9615 4.62289 23.9871C4.42389 24.0637 4.22489 24.1249 4.08712 24.1708Z" fill="#20B4D7"/>
<path d="M23.0838 18.4611C23.0532 18.8897 22.8695 19.1805 22.5021 19.3336C21.9358 19.5632 21.3694 19.7775 20.7877 19.9612C20.1907 20.1449 19.7927 19.9459 19.5784 19.3489C19.1651 18.2621 18.7671 17.1753 18.3844 16.0884C18.1701 15.4608 18.3538 15.0475 18.9661 14.8026C19.5172 14.5883 20.0682 14.3893 20.6193 14.1903C21.1245 14.0066 21.5531 14.1903 21.7215 14.6342C22.2113 15.8435 22.6246 17.0834 23.0685 18.3233C23.0838 18.3692 23.0838 18.4305 23.0838 18.4611Z" fill="#4FC9F1"/>
<path d="M10.5929 28.4107C9.44479 27.3545 8.2508 26.2677 6.96497 25.089C8.37326 24.5532 9.65909 24.0787 10.9908 23.5889C11.0215 25.3186 11.0827 26.9871 10.5929 28.4107Z" fill="#F9A323"/>
<path d="M11.9246 32.5898C12.9962 33.3399 14.0983 33.7226 15.3382 33.5236C15.5984 33.4777 15.5678 33.6155 15.5678 33.7685C15.5678 34.4268 15.5984 35.1003 15.5525 35.7585C15.5219 36.3708 15.0474 36.7076 14.4044 36.6463C13.1033 36.5239 12.0318 35.4677 11.9093 34.1512C11.894 33.6767 11.9246 33.1715 11.9246 32.5898Z" fill="#F9B995"/>
<path d="M18.2466 20.8642C18.2007 20.8948 18.1241 20.9407 18.0323 20.9713C16.7005 21.4918 16.4097 21.3693 15.9352 20.0376C15.6137 19.165 15.2923 18.2925 14.9861 17.42C14.6953 16.5781 15.4913 15.629 16.3638 15.7515C16.5322 15.7821 16.4862 15.9198 16.5015 16.0117C16.9149 17.6649 17.5578 19.2722 18.2466 20.8642Z" fill="#20B3D7"/>
<path d="M33.9215 19.7315C34.0899 17.0986 35.437 14.7719 38.2842 13.5167C41.0701 12.2921 43.6724 12.7513 46.0298 14.6494C46.29 14.8484 46.3512 14.9862 46.1063 15.2923C43.2285 18.9355 39.968 22.1807 36.3401 25.0585C36.0493 25.2882 35.9115 25.2422 35.6972 24.982C34.5797 23.6809 33.9062 21.8746 33.9215 19.7315Z" fill="#FFC815"/>
<path d="M47.53 16.5015C48.0198 17.2821 48.28 18.0934 48.4484 18.9354C48.4943 19.1497 48.4484 19.2568 48.1729 19.2874C45.142 19.6548 43.8408 23.2062 45.8767 25.4105C46.0451 25.5941 46.0298 25.686 45.8614 25.8544C43.9633 27.6454 40.0905 28.028 37.825 26.6504C37.4576 26.4208 37.6719 26.3289 37.8556 26.1911C40.3813 24.1552 42.754 21.9509 44.9124 19.5324C45.8002 18.5527 46.6421 17.5424 47.53 16.5015Z" fill="#FFC815"/>
<path d="M48.4637 21.1398C48.3718 22.2113 48.0045 23.1604 47.4534 24.0482C47.285 24.339 47.1779 24.0941 47.086 23.9717C46.1676 22.7011 47.2238 21.1245 48.4637 21.1398Z" fill="#EC8B23"/>
<path d="M12.1389 43.994C12.1695 42.3408 12.7665 41.652 14.6494 41.1468C14.6647 41.5755 14.8484 41.8816 15.231 42.1265C16.4863 42.9378 17.7262 43.795 18.9814 44.6217C21.5071 46.2749 24.4462 46.2289 26.9107 44.5298C29.0538 43.045 31.1968 41.5601 33.3092 40.0447C33.6613 39.7845 33.7991 39.8763 34.0134 40.1672C34.3655 40.657 34.7328 41.1468 35.1155 41.6214C35.3145 41.8816 35.3298 42.05 35.039 42.2643C32.4061 44.2237 29.8191 46.2289 27.1556 48.1271C24.4921 50.0099 21.1551 49.964 18.4303 48.1577C16.3332 46.7647 14.236 45.387 12.1389 43.994Z" fill="#5759A7"/>
<path d="M34.9166 38.1158C35.1309 36.7994 35.3299 35.5595 35.5442 34.3349C35.5748 34.1359 35.7126 33.9828 35.9269 33.9522C36.1412 33.9216 36.2789 34.0746 36.3861 34.2277C36.7841 34.8247 37.1974 35.4217 37.5801 36.034C37.8556 36.4779 38.223 36.6769 38.7588 36.6769C40.7794 36.6616 42.8 36.6769 44.8206 36.6616C45.3104 36.6616 45.7237 36.7688 45.8155 37.3045C45.9074 37.7791 45.5706 38.024 45.1726 38.1771C43.3051 38.9271 41.5141 39.8609 39.6007 40.4732C38.8659 40.7028 38.0852 40.8406 37.3352 41.0549C37.1056 41.1161 36.9984 41.0855 36.8606 40.9018C36.2789 40.1058 35.6819 39.3098 35.085 38.5291C34.9625 38.3761 34.8707 38.2383 34.9166 38.1158Z" fill="#FDD3B6"/>
<path d="M28.4109 14.7262C28.0129 14.0527 27.6761 13.5016 27.3087 12.874C28.0741 12.874 28.7323 12.874 29.4977 12.874C29.1456 13.5016 28.8089 14.068 28.4109 14.7262Z" fill="#37B781"/>
<path d="M37.5801 2.28076C37.7026 2.38791 37.825 2.47976 37.9169 2.58691C38.2536 2.9696 38.9118 3.26044 38.8812 3.70436C38.8506 4.07174 38.2536 4.40851 37.9322 4.77589C37.6719 5.08204 37.5036 5.08204 37.228 4.7912C36.0187 3.5819 36.0187 3.50537 37.3964 2.43384C37.4423 2.40322 37.5036 2.3573 37.5801 2.28076Z" fill="#37B882"/>
<path d="M52.1681 5.51069C51.5864 5.51069 51.0507 5.51069 50.5149 5.51069C50.5302 5.44946 50.5149 5.38823 50.5455 5.34231C51.3568 4.20955 51.3568 4.20955 52.1681 5.51069Z" fill="#36B47F"/>
<path d="M53.1479 30.2325C53.1632 30.707 52.7499 31.1509 52.26 31.1816C51.7855 31.1969 51.3416 30.7836 51.311 30.2937C51.2957 29.8192 51.709 29.3753 52.1988 29.3447C52.6886 29.3293 53.1326 29.7426 53.1479 30.2325Z" fill="#37B680"/>
<path d="M40.3201 19.2879C40.3048 20.8033 39.0649 22.0279 37.5342 22.0126C36.0187 21.9973 34.8094 20.7421 34.8247 19.2114C34.84 17.7112 36.1106 16.5019 37.6413 16.5172C39.1261 16.5325 40.3354 17.7878 40.3201 19.2879Z" fill="#010101"/>
<path d="M38.4832 19.2571C38.4832 19.7317 38.0546 20.1756 37.5801 20.1756C37.0902 20.1756 36.6769 19.747 36.6616 19.2725C36.6616 18.7979 37.0902 18.354 37.5648 18.354C38.0546 18.354 38.4832 18.7826 38.4832 19.2571Z" fill="#EB8A23"/>
</svg>
