<svg width="24" height="20" viewBox="0 0 24 20" fill="none" xmlns="http://www.w3.org/2000/svg">
<path d="M21.5156 5.12524C21.5156 5.35962 21.5156 5.54712 21.5156 5.78149C21.5156 12.2971 16.5938 19.7502 7.54688 19.7502C4.73438 19.7502 2.15625 18.9534 0 17.5471C0.375 17.594 0.75 17.6409 1.17188 17.6409C3.46875 17.6409 5.57812 16.844 7.26562 15.5315C5.10938 15.4846 3.28125 14.0784 2.67188 12.1096C3 12.1565 3.28125 12.2034 3.60938 12.2034C4.03125 12.2034 4.5 12.1096 4.875 12.0159C2.625 11.5471 0.9375 9.57837 0.9375 7.18774V7.14087C1.59375 7.51587 2.39062 7.70337 3.1875 7.75024C1.82812 6.85962 0.984375 5.35962 0.984375 3.67212C0.984375 2.73462 1.21875 1.89087 1.64062 1.18774C4.07812 4.14087 7.73438 6.10962 11.8125 6.34399C11.7188 5.96899 11.6719 5.59399 11.6719 5.21899C11.6719 2.50024 13.875 0.297119 16.5938 0.297119C18 0.297119 19.2656 0.859619 20.2031 1.84399C21.2812 1.60962 22.3594 1.18774 23.2969 0.625244C22.9219 1.79712 22.1719 2.73462 21.1406 3.34399C22.125 3.25024 23.1094 2.96899 23.9531 2.59399C23.2969 3.57837 22.4531 4.42212 21.5156 5.12524Z" fill="#FFC815"/>
</svg>
