<svg width="55" height="55" viewBox="0 0 55 55" fill="none" xmlns="http://www.w3.org/2000/svg">
<path d="M53.6079 0C54.6126 0.373173 54.9714 1.11952 54.9427 2.18163C54.8996 4.80819 54.9284 7.43476 54.9284 10.0757C54.9284 11.1665 54.2968 11.8985 53.3495 11.9415C52.3305 11.9702 51.5985 11.2239 51.5841 10.1474C51.5698 8.10934 51.5841 6.07124 51.5841 4.03314C51.5841 3.8322 51.5841 3.64562 51.5841 3.37291C51.3258 3.37291 51.1249 3.37291 50.9096 3.37291C48.8141 3.37291 46.7185 3.38726 44.6374 3.35856C43.8193 3.34421 43.2165 2.7988 43.0586 2.00939C42.915 1.26305 43.2739 0.545407 43.9772 0.200939C44.1063 0.143528 44.2355 0.0861169 44.3647 0.0143528C47.4505 0 50.5364 0 53.6079 0Z" fill="#FFC815"/>
<path d="M10.6356 0C11.0232 0.301409 11.5112 0.531054 11.7552 0.91858C12.4154 1.98069 11.6116 3.3155 10.3055 3.34421C8.25308 3.37291 6.18627 3.35856 4.13382 3.35856C3.91853 3.35856 3.70323 3.35856 3.44488 3.35856C3.43053 3.5882 3.41618 3.77479 3.41618 3.96138C3.41618 6.04254 3.41618 8.10934 3.41618 10.1905C3.41618 11.0517 2.85642 11.755 2.08136 11.9128C1.33502 12.0564 0.545613 11.6688 0.229851 10.9512C0.115028 10.6929 0.07197 10.3914 0.07197 10.1187C0.0576172 7.363 0.07197 4.60725 0.0576172 1.85151C0.0576172 0.889875 0.559966 0.344468 1.39243 0C4.47829 0 7.54979 0 10.6356 0Z" fill="#FFC815"/>
<path d="M0 24.6007C0.114823 24.1127 0.200939 23.6391 0.330115 23.1511C0.818111 21.3139 1.70799 19.7064 3.0428 18.3573C3.74609 17.6396 4.76514 17.5966 5.43972 18.2281C6.14301 18.8883 6.17171 19.9217 5.43972 20.6681C4.10491 22.0603 3.37291 23.7109 3.32985 25.6198C3.27244 27.6435 3.94702 29.4089 5.3536 30.8873C5.76983 31.3178 6.04254 31.8058 5.95642 32.423C5.85595 33.0976 5.48278 33.5856 4.8369 33.8009C4.19102 34.0162 3.60256 33.8727 3.11456 33.3847C1.47834 31.7341 0.487996 29.7534 0.114823 27.4713C0.0861169 27.3421 0.0430585 27.2129 0 27.0694C0 26.2513 0 25.4332 0 24.6007Z" fill="#FFC815"/>
<path d="M34.4177 20.2375C34.4608 20.2949 34.4751 20.3236 34.5038 20.3523C35.5946 21.4862 35.5946 21.4862 37.1591 21.4862C38.3073 21.4862 39.4699 21.3857 40.5894 21.558C42.7423 21.8737 44.2207 23.7539 44.1346 25.8638C44.0485 27.9593 42.484 29.7247 40.3024 29.8682C38.0346 29.9974 35.7525 29.9257 33.4848 29.8826C32.437 29.8682 31.5615 29.3659 30.8295 28.6339C30.729 28.5334 30.6286 28.4473 30.4563 28.2894C30.2985 28.9497 30.1406 29.5381 30.0401 30.1409C30.0114 30.2988 30.198 30.5141 30.3272 30.6576C33.9297 34.2746 37.5323 37.8771 41.1492 41.4797C41.8094 42.1399 42.3261 42.8719 42.5127 43.8048C42.9002 45.6707 42.0678 47.5079 40.4315 48.4121C38.781 49.3163 36.7859 49.058 35.3937 47.6801C33.0686 45.3836 30.7577 43.0585 28.4326 40.7333C28.1455 40.4463 27.8585 40.1449 27.4997 39.7573C27.3705 40.2884 27.2557 40.7046 27.1552 41.1209C26.495 43.8479 23.9976 45.1971 21.371 44.2211C18.9741 43.3455 16.5772 42.4413 14.1946 41.5371C12.3287 40.8338 11.2666 39.1832 11.3814 37.2312C11.4819 35.4515 12.8024 33.9157 14.6108 33.4564C15.5007 33.2268 16.3762 33.3273 17.2374 33.6574C18.156 34.0019 19.0746 34.3463 20.0505 34.7051C20.9261 31.3179 21.7872 27.9593 22.6628 24.5577C22.2035 24.4429 21.8446 24.4716 21.5002 24.8304C20.3663 26.0073 19.2181 27.1556 18.0412 28.2894C16.8355 29.4664 15.3859 29.8252 13.7927 29.3372C12.1852 28.8348 11.2092 27.701 10.8934 26.0504C10.6351 24.7012 10.9796 23.4669 11.9412 22.4765C13.6922 20.6824 15.472 18.917 17.2517 17.1516C18.0699 16.3479 19.1033 16.0321 20.2371 16.0465C21.4141 16.0608 22.591 16.0465 23.8397 16.0465C23.4522 13.6926 23.9832 11.6402 25.5907 9.91783C26.5667 8.87007 27.7867 8.19549 29.1933 7.93714C32.3079 7.37738 35.2358 8.85572 36.5993 11.6258C37.8337 14.0945 37.6471 17.7832 34.4177 20.2375ZM23.323 19.4337C22.8206 19.4337 22.3039 19.4912 21.8159 19.4194C20.3089 19.1897 19.2181 19.7352 18.2277 20.8834C17.0939 22.2038 15.7591 23.3808 14.5247 24.6295C13.9649 25.1892 14.1085 25.9643 14.7974 26.1796C15.2136 26.3087 15.5151 26.1222 15.8021 25.8495C17.1226 24.529 18.443 23.2229 19.7491 21.8881C20.2371 21.4001 20.7682 21.1561 21.4715 21.1704C22.4905 21.1991 23.5096 21.1704 24.5286 21.1704C26.05 21.1704 26.782 22.089 26.4088 23.5386C25.2463 28.0741 24.0693 32.5953 22.8924 37.1164C22.5479 38.4225 21.6581 38.8962 20.3663 38.4082C18.9454 37.8771 17.5244 37.3461 16.1035 36.815C15.4289 36.571 14.984 36.7432 14.7831 37.303C14.6108 37.8197 14.8548 38.2216 15.5151 38.4656C17.8259 39.3267 20.1223 40.1879 22.4331 41.0491C23.3086 41.3792 23.7249 41.1496 23.9545 40.231C24.2846 38.8962 24.6147 37.5614 24.9305 36.2265C25.0597 35.6955 25.3324 35.2793 25.8204 35.0209C26.538 34.6477 27.227 34.7913 27.9015 35.4658C31.0879 38.6522 34.2885 41.8385 37.4749 45.0392C37.6184 45.1827 37.7476 45.3262 37.9055 45.441C38.293 45.685 38.7092 45.6707 39.025 45.3406C39.3551 45.0105 39.3694 44.6086 39.0967 44.2211C38.9676 44.0345 38.781 43.8766 38.6231 43.7187C34.8052 39.9009 30.9874 36.0687 27.1552 32.2508C26.5667 31.6623 26.3801 31.0165 26.5811 30.2127C27.0117 28.4043 27.4279 26.5958 27.8441 24.7873C28.002 24.1128 28.3465 23.5817 29.0211 23.3951C29.71 23.1942 30.3128 23.3951 30.8295 23.9118C31.5759 24.6869 32.3366 25.4476 33.1116 26.1796C33.3125 26.3662 33.6283 26.5671 33.8867 26.5671C35.8961 26.5958 37.8911 26.5814 39.9005 26.5814C40.3167 26.5814 40.6181 26.3805 40.7473 25.9786C40.9339 25.3615 40.5033 24.8448 39.7857 24.8448C38.2069 24.8304 36.6281 24.8735 35.0636 24.816C34.633 24.8017 34.1163 24.6438 33.8005 24.3568C32.5806 23.2229 31.418 22.0316 30.2554 20.8403C29.7818 20.3523 29.6669 19.7495 29.9109 19.1036C30.1693 18.4147 30.7434 18.142 31.418 17.9698C33.2121 17.5105 34.3172 15.6877 33.8867 13.9223C33.5135 12.4152 32.5375 11.4966 31.0161 11.267C29.6095 11.0517 28.49 11.5971 27.6862 12.7597C26.8538 13.9653 26.8681 15.415 27.715 16.6349C28.1455 17.2665 28.3178 17.8836 27.9302 18.5869C27.5427 19.2902 26.9255 19.4912 26.1648 19.4768C25.2176 19.4194 24.2703 19.4337 23.323 19.4337Z" fill="#FFC815"/>
<path d="M3.41584 51.6558C3.65983 51.6558 3.86077 51.6558 4.04736 51.6558C6.14287 51.6558 8.23838 51.6558 10.3339 51.6558C11.0515 51.6558 11.5539 52.0289 11.8409 52.6748C12.1136 53.292 12.0419 53.9235 11.5682 54.3685C11.2381 54.6699 10.7501 54.9569 10.3195 54.9713C7.46333 55.0287 4.59277 55.0143 1.73656 55C0.803623 55 0.100335 54.311 0.0859824 53.3638C0.0572767 50.4788 0.0572767 47.6083 0.0859824 44.7234C0.100335 43.7474 0.832329 43.0728 1.77961 43.0871C2.68384 43.1015 3.41584 43.8191 3.41584 44.7951C3.43019 46.8763 3.41584 48.9431 3.41584 51.0242C3.41584 51.2108 3.41584 51.3974 3.41584 51.6558Z" fill="#FFC815"/>
<path d="M51.5839 51.6557C51.5839 51.3973 51.5839 51.1964 51.5839 51.0098C51.5839 48.9574 51.5839 46.8906 51.5839 44.8381C51.5839 43.9769 52.1436 43.2737 52.9187 43.1158C53.6938 42.9579 54.4975 43.3598 54.7989 44.1205C54.8994 44.3788 54.9281 44.6802 54.9281 44.9529C54.9424 47.68 54.9424 50.3927 54.9281 53.1197C54.9281 54.354 54.2535 55.0143 53.0479 55.0143C50.2921 55.0143 47.5364 55.0143 44.7807 55.0143C43.8764 55.0143 43.2162 54.4689 43.0583 53.622C42.9148 52.847 43.331 52.0719 44.1061 51.7849C44.3788 51.6844 44.6945 51.6701 44.9959 51.6701C46.9623 51.6557 48.9286 51.6701 50.895 51.6701C51.1102 51.6557 51.2968 51.6557 51.5839 51.6557Z" fill="#FFC815"/>
<path d="M54.9996 26.6675C54.9566 28.7199 53.9806 31.1886 52.0286 33.2411C51.2822 34.0305 50.2632 34.1022 49.5599 33.442C48.8423 32.7674 48.8566 31.7771 49.603 30.959C52.4018 27.9018 52.3874 23.7539 49.5886 20.6967C48.871 19.9073 48.8566 18.9313 49.5456 18.2567C50.2345 17.5821 51.2679 17.6396 52.0286 18.4146C53.9519 20.3953 55.014 23.0506 54.9996 26.6675Z" fill="#FFC815"/>
<path d="M49.9476 25.8495C49.8759 27.744 49.2587 29.3946 47.9526 30.7725C47.235 31.5188 46.2159 31.5762 45.5126 30.916C44.838 30.2845 44.838 29.2654 45.4983 28.5047C46.9623 26.8254 46.9623 24.8591 45.4983 23.1798C44.838 22.4191 44.838 21.4144 45.5126 20.7686C46.2159 20.1083 47.2206 20.1514 47.9526 20.9121C49.2874 22.29 49.8902 23.9692 49.9476 25.8495Z" fill="#FFC815"/>
<path d="M5.05176 25.8351C5.10917 23.9405 5.74069 22.2756 7.07551 20.912C7.77879 20.1801 8.76914 20.1226 9.47243 20.7542C10.1614 21.3713 10.2331 22.4478 9.52984 23.1511C8.0802 24.6294 8.06585 27.0694 9.54419 28.5621C10.2188 29.251 10.147 30.2988 9.50113 30.916C8.8122 31.5618 7.79315 31.5331 7.10421 30.8155C5.74069 29.4233 5.10917 27.744 5.05176 25.8351Z" fill="#FFC815"/>
</svg>
