<svg width="55" height="55" viewBox="0 0 55 55" fill="none" xmlns="http://www.w3.org/2000/svg">
<path d="M22.3008 0C22.3008 1.11719 22.3008 2.2487 22.3008 3.42318C15.9987 3.42318 9.73958 3.42318 3.45182 3.42318C3.45182 19.4935 3.45182 35.4922 3.45182 51.5339C19.4505 51.5339 35.4349 51.5339 51.4479 51.5339C51.4479 45.2461 51.4479 38.987 51.4479 32.6562C52.6224 32.6562 53.7539 32.6562 54.8854 32.6562C54.8854 40.1042 54.8854 47.5521 54.8854 55C36.5951 55 18.2904 55 0 55C0 36.6667 0 18.3333 0 0C7.43359 0 14.8672 0 22.3008 0Z" fill="#FFC815"/>
<path d="M54.8857 12.0312C50.5602 12.0598 46.5068 15.3541 46.292 20.582C45.1748 20.582 44.0719 20.582 42.8975 20.582C42.7972 18.276 42.0238 16.2421 40.3766 14.5806C38.7295 12.9192 36.6956 12.1171 34.3467 12.0168C34.3467 10.8853 34.3467 9.76815 34.3467 8.59367C36.9678 8.49341 39.1878 7.4908 40.8923 5.47127C42.21 3.89575 42.8402 2.0481 42.8831 -0.0144043C44.029 -0.0144043 45.1748 -0.0144043 46.3206 -0.0144043C46.4066 4.7981 50.0876 8.47909 54.9001 8.57935C54.8857 9.7395 54.8857 10.8853 54.8857 12.0312ZM44.6019 14.4231C45.6761 12.69 47.0081 11.3723 48.6982 10.3124C46.9938 9.2382 45.6618 7.90617 44.6019 6.21606C43.5277 7.93481 42.1956 9.25252 40.5199 10.3267C42.21 11.3723 43.5277 12.7043 44.6019 14.4231Z" fill="#FFC815"/>
<path d="M29.1611 0C29.1611 1.11719 29.1611 2.23438 29.1611 3.39453C28.0153 3.39453 26.9124 3.39453 25.7236 3.39453C25.7236 2.26302 25.7236 1.13151 25.7236 0C26.8695 0 28.0153 0 29.1611 0Z" fill="#FFC815"/>
<path d="M54.8857 29.2188C53.7686 29.2188 52.6514 29.2188 51.4912 29.2188C51.4912 28.0729 51.4912 26.9701 51.4912 25.7812C52.6227 25.7812 53.7542 25.7812 54.8857 25.7812C54.8857 26.9271 54.8857 28.0729 54.8857 29.2188Z" fill="#FFC815"/>
<path d="M25.738 13.7786C26.8981 13.7786 28.001 13.7786 29.1468 13.7786C29.2471 17.0728 30.3786 19.9374 32.7132 22.2577C35.0335 24.5637 37.8695 25.6952 41.1494 25.7955C41.1494 26.9413 41.1494 28.0442 41.1494 29.2043C37.8838 29.3046 35.0335 30.4218 32.7132 32.7564C30.3929 35.0767 29.2614 37.9127 29.1755 41.2213C28.0439 41.2213 26.9268 41.2213 25.7666 41.2213C25.6663 37.9413 24.5348 35.0767 22.2145 32.7564C19.8942 30.4361 17.0583 29.3189 13.7783 29.2187C13.7783 28.0728 13.7783 26.97 13.7783 25.8098C17.0296 25.7096 19.8942 24.5924 22.2145 22.2577C24.5062 19.9231 25.6377 17.0872 25.738 13.7786ZM27.4424 34.1314C28.9893 31.2239 31.1807 29.0611 34.0596 27.4999C31.152 25.9387 28.9893 23.7473 27.4281 20.8684C25.8669 23.776 23.6755 25.9387 20.8252 27.4999C23.7327 29.0754 25.8955 31.2525 27.4424 34.1314Z" fill="#FFC815"/>
</svg>
