<svg width="54" height="62" viewBox="0 0 54 62" fill="none" xmlns="http://www.w3.org/2000/svg">
<path d="M20.75 39.2915V45.1248C10.5417 46.9998 2.83333 53.0415 2 60.5415H52C51.1667 53.0415 43.4583 46.9998 33.25 45.1248V39.4998" stroke="#FFC815" stroke-width="2.5" stroke-miterlimit="10" stroke-linecap="round" stroke-linejoin="round"/>
<path d="M38.8752 46.5833C37.2086 49.2916 32.6252 51.1666 27.0002 51.1666C21.5836 51.1666 16.7919 49.2916 15.1252 46.5833" stroke="#FFC815" stroke-width="2.5" stroke-miterlimit="10" stroke-linecap="round" stroke-linejoin="round"/>
<path d="M38.875 33.2502H15.125C11.375 33.2502 8.25 30.1252 8.25 26.3752V17.2085C8.25 13.4585 11.375 10.3335 15.125 10.3335H39.0833C42.625 10.3335 45.75 13.4585 45.75 17.2085V26.5835C45.75 30.1252 42.625 33.2502 38.875 33.2502Z" stroke="#FFC815" stroke-width="2.5" stroke-miterlimit="10" stroke-linecap="round" stroke-linejoin="round"/>
<path d="M20.75 18.6665H33.25" stroke="#FFC815" stroke-width="2.5" stroke-miterlimit="10" stroke-linecap="round" stroke-linejoin="round"/>
<path d="M38.4584 33.25C35.3334 38.4583 30.7501 41.5833 27.0001 41.5833C23.2501 41.5833 18.6667 38.4583 15.5417 33.25" stroke="#FFC815" stroke-width="2.5" stroke-miterlimit="10" stroke-linecap="round" stroke-linejoin="round"/>
<path d="M13.25 10.5417C15.75 5.125 20.125 2 27 2C33.875 2 38.25 5.125 40.75 10.5417" stroke="#FFC815" stroke-width="2.5" stroke-miterlimit="10" stroke-linecap="round" stroke-linejoin="round"/>
</svg>
