<svg width="34" height="30" viewBox="0 0 34 30" fill="none" xmlns="http://www.w3.org/2000/svg">
<path d="M2.41699 12.9169H27.1253L19.5628 3.83358C19.2092 3.40813 19.0391 2.85963 19.0899 2.30874C19.1407 1.75785 19.4082 1.2497 19.8337 0.896082C20.2591 0.54246 20.8076 0.372331 21.3585 0.423122C21.9094 0.473913 22.4175 0.741464 22.7712 1.16692L33.1878 13.6669C33.2579 13.7663 33.3206 13.8708 33.3753 13.9794C33.3753 14.0836 33.3753 14.1461 33.5212 14.2502C33.6156 14.4891 33.665 14.7434 33.667 15.0002C33.665 15.2571 33.6156 15.5114 33.5212 15.7502C33.5212 15.8544 33.5212 15.9169 33.3753 16.0211C33.3206 16.1297 33.2579 16.2342 33.1878 16.3336L22.7712 28.8336C22.5753 29.0688 22.33 29.2579 22.0527 29.3875C21.7755 29.5171 21.4731 29.5841 21.167 29.5836C20.6802 29.5845 20.2085 29.415 19.8337 29.1044C19.6227 28.9295 19.4483 28.7147 19.3205 28.4723C19.1927 28.2299 19.1139 27.9647 19.0888 27.6919C19.0636 27.419 19.0926 27.1438 19.1739 26.8822C19.2552 26.6205 19.3874 26.3774 19.5628 26.1669L27.1253 17.0836H2.41699C1.86446 17.0836 1.33455 16.8641 0.943851 16.4734C0.55315 16.0827 0.33366 15.5528 0.33366 15.0002C0.33366 14.4477 0.55315 13.9178 0.943851 13.5271C1.33455 13.1364 1.86446 12.9169 2.41699 12.9169Z" fill="#FFC815"/>
</svg>
