<svg width="50" height="50" viewBox="0 0 50 50" fill="none" xmlns="http://www.w3.org/2000/svg">
<path d="M25.9066 0C25.9066 1.14793 25.8805 2.3089 25.8935 3.45682C25.9066 4.33081 26.6371 4.97 27.5372 4.97C28.946 4.98304 30.3678 4.95695 31.7767 4.98304C33.3159 5.00913 34.6726 6.1701 34.9595 7.64414C35.2596 9.18341 34.4769 10.6966 33.0811 11.3488C32.5332 11.5967 31.9593 11.6749 31.3723 11.6749C27.1328 11.6749 22.8802 11.6749 18.6407 11.6749C18.1581 11.6749 17.7015 11.7141 17.3102 12.0402C16.8014 12.4706 16.5797 13.1751 16.7754 13.8012C16.9971 14.4795 17.5189 14.9361 18.2363 14.9491C19.606 14.9752 20.9627 14.9491 22.3324 14.9622C24.0412 14.9752 25.3457 15.9405 25.75 17.4667C25.9327 18.1711 25.8805 18.8886 25.8674 19.6061C25.8674 19.9061 25.9588 20.0235 26.2588 19.9843C26.2849 19.9843 26.324 19.9843 26.3501 19.9843C27.5372 19.9843 27.5372 19.9843 27.5372 21.1584C27.5372 21.6932 27.5632 22.228 27.5241 22.7628C27.498 23.1803 27.5893 23.3368 28.0589 23.3238C30.7853 23.2977 33.5246 23.3499 36.251 23.2977C39.4078 23.2325 42.1863 24.2238 44.6256 26.1675C47.2084 28.2155 48.9825 30.8114 49.7391 34.0595C49.8304 34.4769 49.8043 34.9204 49.9869 35.3248C49.9869 36.2379 49.9869 37.1511 49.9869 38.0642C49.8174 38.7947 49.713 39.5513 49.4912 40.2557C47.8215 45.5127 44.2995 48.7477 38.8599 49.7652C35.5596 50.3913 32.4941 49.6739 29.6243 47.965C26.5458 46.1388 23.4411 46.1388 20.3757 47.9781C12.7576 52.5307 3.14373 48.9173 0.600029 40.4513C-0.860968 35.6248 0.339137 31.3462 3.74378 27.6807C5.77874 25.4892 8.25722 24.0151 11.2444 23.4673C12.0141 23.3238 12.7967 23.2977 13.5794 23.2977C16.4101 23.2977 19.2408 23.2977 22.0715 23.3107C22.3976 23.3107 22.528 23.2455 22.5019 22.8933C22.4758 22.2802 22.4889 21.6541 22.4889 21.041C22.4889 19.9713 22.4889 19.9713 23.5325 19.9713C23.6499 19.9713 23.7673 19.9583 23.8716 19.9713C24.0803 19.9974 24.1586 19.9061 24.1456 19.6974C24.1325 19.1625 24.1586 18.6277 24.1195 18.0929C24.0673 17.2972 23.3629 16.6841 22.528 16.671C21.1192 16.658 19.6973 16.6971 18.2885 16.658C16.8797 16.6188 15.8231 15.9275 15.2752 14.6361C14.7273 13.3446 14.9361 12.1184 15.8883 11.0618C16.6058 10.2661 17.545 9.96608 18.6016 9.96608C22.9324 9.96608 27.2502 9.96608 31.581 9.96608C32.6506 9.96608 33.342 9.26167 33.3159 8.23115C33.2898 7.48761 32.7289 6.83538 31.9854 6.71798C31.7636 6.67884 31.5288 6.6658 31.307 6.6658C30.0678 6.6658 28.8286 6.67884 27.6024 6.6658C25.5935 6.63971 24.1847 5.23089 24.1586 3.22202C24.1456 2.15236 24.1456 1.0827 24.1325 0C24.7326 0 25.3196 0 25.9066 0Z" fill="#010101"/>
<path d="M6.45711 45.9953C4.59173 44.6909 3.27422 42.9429 2.49155 40.8166C0.769657 36.0945 1.85236 31.9854 5.36136 28.4764C7.10934 26.7415 9.17039 25.5544 11.6097 25.137C12.2359 25.0326 12.862 24.9935 13.5012 24.9935C21.1845 24.9935 28.8808 24.9805 36.5641 25.0065C40.6601 25.0196 43.7125 26.9893 46.1127 30.1722C46.1388 30.2505 46.1258 30.3418 46.0736 30.394C45.0431 31.5158 43.9212 32.5202 42.669 33.3812C42.0428 33.4855 41.4297 33.5638 40.8688 33.916C40.334 34.2552 39.9165 34.6726 39.6296 35.2466C39.5513 35.4161 39.4861 35.6118 39.3165 35.7162C37.6859 36.6684 36.0032 37.5294 34.3074 38.3512C34.1117 38.4425 33.9291 38.6251 33.6812 38.4686C33.5899 38.2599 33.7204 38.0903 33.7986 37.9207C34.6465 35.8466 33.2377 33.5377 30.994 33.4464C29.0504 33.3681 27.6676 34.9596 27.6807 36.5119C27.6937 38.0642 28.3851 39.1208 29.8461 39.7078C29.9896 39.773 30.1592 39.7991 30.2244 39.9818C30.107 40.2166 29.8722 40.2557 29.6635 40.334C26.6241 41.4819 23.5325 42.4733 20.3888 43.3081C16.071 44.4561 11.688 45.3561 7.27892 46.0605C6.99194 46.0866 6.73105 46.1258 6.45711 45.9953Z" fill="#FFC815"/>
<path d="M42.695 33.2899C43.8821 32.2855 45.1213 31.3593 46.1257 30.1592C47.8346 32.4159 48.5781 34.9466 48.2911 37.7772C47.7954 42.6298 44.4691 46.6084 39.773 47.8868C36.6293 48.7347 33.6159 48.3434 30.8114 46.6867C29.4678 45.904 28.085 45.2518 26.5327 45.0692C24.1195 44.7822 21.8367 45.1083 19.7495 46.4128C17.7276 47.6781 15.5361 48.3564 13.162 48.2912C10.7096 48.226 8.43985 47.5216 6.48315 45.9953C7.82675 45.891 9.13121 45.617 10.4618 45.3822C13.3316 44.8735 16.1753 44.2604 18.9929 43.543C22.7628 42.5776 26.4805 41.4297 30.1069 40.0209C30.1461 40.0079 30.1852 39.9687 30.2243 39.9426C30.3157 39.8122 30.4461 39.8383 30.5766 39.8513C31.6593 39.9426 32.5724 39.5643 33.3029 38.7686C33.4203 38.6382 33.4985 38.4556 33.7073 38.4686C33.929 38.4686 34.0986 38.3382 34.2943 38.2468C35.8727 37.4511 37.4772 36.7206 38.9642 35.7684C39.0686 35.7031 39.186 35.6379 39.3295 35.651C39.4599 35.8336 39.3947 36.0293 39.3686 36.2119C39.173 37.5816 39.8904 38.9252 41.1427 39.5513C42.3689 40.1514 43.7647 39.9035 44.7691 38.9252C45.6822 38.0381 45.904 36.9685 45.6039 35.7945C45.2909 34.6335 44.4952 33.8769 43.3211 33.5638C43.0863 33.4856 42.8385 33.5116 42.695 33.2899Z" fill="#FBAB42"/>
<path d="M24.7325 23.3107C24.3673 23.376 24.1585 23.2716 24.2368 22.8672C24.2499 22.815 24.2368 22.7759 24.2368 22.7237C24.2368 21.6671 24.2368 21.6932 25.3065 21.6541C25.75 21.641 25.8804 21.7976 25.8283 22.2019C25.8152 22.3193 25.8152 22.4237 25.8152 22.5411C25.5282 22.9064 25.1891 23.1933 24.7325 23.3107Z" fill="#884E21"/>
<path d="M24.7325 23.3106C25.0847 23.0498 25.45 22.8019 25.8022 22.541C25.8022 23.428 26.0109 23.3367 24.7325 23.3106Z" fill="#6B3916"/>
<path d="M13.3838 29.9764C13.8925 29.9764 14.3882 29.9764 14.897 29.9764C15.5362 29.9895 15.8623 30.2895 15.8623 30.9287C15.8753 31.8679 15.8753 32.8201 15.8623 33.7593C15.8492 34.0855 15.9536 34.1768 16.2667 34.1637C17.1928 34.1376 18.119 34.1507 19.0452 34.1637C19.7365 34.1637 20.0366 34.4638 20.0496 35.1812C20.0496 36.1596 20.0496 37.1379 20.0496 38.1032C20.0496 38.8467 19.7496 39.1468 19.0191 39.1468C18.0929 39.1468 17.1667 39.1598 16.2406 39.1468C15.9405 39.1468 15.8492 39.225 15.8623 39.5251C15.8753 40.4643 15.8753 41.4165 15.8623 42.3557C15.8623 42.9949 15.5492 43.321 14.91 43.3341C13.8925 43.3471 12.862 43.3471 11.8315 43.3341C11.1662 43.321 10.8662 42.9949 10.8662 42.3297C10.8662 41.4035 10.8531 40.4773 10.8792 39.5512C10.8923 39.225 10.7749 39.1468 10.4618 39.1598C9.53564 39.1729 8.60947 39.1729 7.6833 39.1598C7.01803 39.1598 6.69191 38.8467 6.69191 38.1815C6.67887 37.177 6.67887 36.1596 6.69191 35.1551C6.69191 34.4768 7.00498 34.1768 7.6833 34.1768C8.60947 34.1768 9.53564 34.1637 10.4618 34.1898C10.814 34.2029 10.8923 34.0855 10.8792 33.7463C10.8531 32.8201 10.8662 31.894 10.8792 30.9678C10.8792 30.3286 11.1923 30.0025 11.8315 29.9894C12.3402 29.9634 12.862 29.9764 13.3838 29.9764Z" fill="#010101"/>
<path d="M33.6942 38.4555C32.8202 39.6426 31.6722 40.1383 30.2112 39.9426C28.8937 39.5774 27.9806 38.7947 27.6284 37.438C27.1718 35.6901 28.3198 33.8116 30.0938 33.4073C31.907 33.0029 33.7202 34.1247 34.1116 35.8857C34.3203 36.7989 34.1116 37.6468 33.6942 38.4555Z" fill="#010101"/>
<path d="M42.695 33.29C43.6733 33.4335 44.5212 33.7988 45.1474 34.6075C46.0605 35.7685 46.0735 37.5165 45.1604 38.6644C44.169 39.9297 42.5384 40.3341 41.1035 39.6689C39.7208 39.0297 38.9381 37.4904 39.2381 36.0164C39.2642 35.8859 39.2773 35.7555 39.3034 35.6381C39.9295 34.1119 41.0513 33.3292 42.695 33.29Z" fill="#010101"/>
<path d="M36.6814 34.9725C34.8421 34.9725 33.329 33.4593 33.342 31.6331C33.355 29.8069 34.8813 28.2937 36.7206 28.3067C38.5338 28.3198 40.0208 29.8199 40.0339 31.6331C40.0469 33.4593 38.5338 34.9725 36.6814 34.9725Z" fill="#010101"/>
<path d="M36.6814 44.991C34.8552 44.991 33.329 43.4387 33.342 41.6255C33.355 39.7993 34.9074 38.2731 36.7206 38.2992C38.5468 38.3252 40.0208 39.8123 40.0339 41.6386C40.0469 43.4518 38.5077 44.991 36.6814 44.991Z" fill="#010101"/>
<path d="M9.40511 37.477C8.42677 37.49 8.41372 37.4901 8.42677 36.5247C8.42677 35.7421 8.3485 35.8334 9.13118 35.8203C9.91385 35.8203 10.6965 35.8203 11.4662 35.8203C12.2358 35.8203 12.5358 35.5203 12.5358 34.7768C12.5358 33.8636 12.5489 32.9636 12.5358 32.0504C12.5358 31.7374 12.6271 31.633 12.9532 31.633C14.2055 31.62 14.2055 31.6069 14.2055 32.8592C14.2055 33.5245 14.2055 34.1898 14.2055 34.855C14.2055 35.4812 14.5447 35.8073 15.1708 35.8203C15.523 35.8203 15.8883 35.8203 16.2405 35.8334C16.2535 36.0551 16.0709 36.0943 15.9274 36.1465C14.2838 36.8378 12.588 37.2552 10.8009 37.3857C10.3443 37.4248 9.87472 37.3857 9.40511 37.477Z" fill="#393956"/>
<path d="M9.40515 37.4771C10.1487 37.3858 10.8922 37.3075 11.6358 37.1901C13.2142 36.9162 14.7926 36.6161 16.2275 35.8335C16.8275 35.8335 17.4406 35.7552 18.0276 35.8465C18.7451 35.9509 18.2624 36.564 18.3668 36.9423C18.432 37.164 18.4972 37.5162 18.0146 37.5032C17.0623 37.4771 16.097 37.4901 15.1448 37.5032C14.5186 37.5032 14.1925 37.8293 14.1925 38.4554C14.1795 39.3816 14.1795 40.3078 14.1925 41.2339C14.2056 41.5992 14.0882 41.7035 13.7229 41.7035C12.5228 41.7035 12.5228 41.7166 12.5228 40.5165C12.5228 39.8121 12.5228 39.1207 12.5228 38.4163C12.5228 37.8293 12.1837 37.5032 11.5836 37.5032C10.8661 37.4771 10.1356 37.4771 9.40515 37.4771Z" fill="#202133"/>
<path d="M30.694 38.2597C29.8331 38.1945 29.22 37.5292 29.22 36.6422C29.22 35.7682 29.8592 35.0768 30.7071 35.0116C31.6332 34.9464 32.3376 35.4942 32.455 36.3813C32.5333 37.0205 31.7506 38.0119 31.0593 38.1684C30.9419 38.2075 30.7984 38.1814 30.694 38.2597Z" fill="#EA3937"/>
<path d="M30.694 38.2598C31.581 37.9206 32.2071 37.3336 32.468 36.3813C32.742 37.4249 31.6723 38.4946 30.694 38.2598Z" fill="#CF2426"/>
<path d="M42.3036 38.2596C41.4688 38.1683 40.8427 37.477 40.8427 36.6551C40.8427 35.8594 41.4427 35.155 42.1993 35.0376C43.1124 34.9072 43.8168 35.3376 44.0777 36.1986C44.169 37.1117 43.5168 38.0118 42.6298 38.1944C42.5254 38.2074 42.408 38.1814 42.3036 38.2596Z" fill="#EA3937"/>
<path d="M42.3037 38.2598C42.982 37.9989 43.569 37.6336 43.8952 36.9423C44.0126 36.6944 44.0647 36.4596 44.0647 36.1987C44.4952 37.3075 43.3995 38.5076 42.3037 38.2598Z" fill="#D32527"/>
<path d="M36.4466 33.2769C35.5335 33.1073 34.9465 32.3768 35.0378 31.5028C35.1291 30.6158 35.8857 29.9375 36.7466 29.9896C37.6206 30.0418 38.2728 30.681 38.2989 31.5289C38.1946 32.429 37.2293 33.2638 36.4466 33.2769Z" fill="#92CDCE"/>
<path d="M36.4467 33.2768C37.3467 33.0029 37.9337 32.3898 38.299 31.5288C38.3773 32.6506 37.6207 33.3551 36.4467 33.2768Z" fill="#83B2B6"/>
<path d="M36.5249 43.256C35.6379 43.1777 34.9987 42.4733 35.0378 41.5993C35.0639 40.6992 35.7683 40.0079 36.6554 39.9948C37.5685 39.9818 38.2468 40.5949 38.299 41.4819C38.1033 42.4733 37.5163 43.0734 36.5249 43.256Z" fill="#92CDCE"/>
<path d="M36.5249 43.256C37.3858 42.9299 37.9859 42.3559 38.299 41.4819C38.3903 42.5907 37.5815 43.3995 36.5249 43.256Z" fill="#82B1B6"/>
</svg>
