<svg width="50" height="54" viewBox="0 0 50 54" fill="none" xmlns="http://www.w3.org/2000/svg">
<g clip-path="url(#clip0_112_569)">
<path d="M29.375 39.2396C30.6979 38.7396 32.0104 38.2187 33.1875 37.4167C33.3542 37.3021 33.5104 37.3333 33.6771 37.375C36.6771 38.0104 39.7083 38.5416 42.6667 39.3021C45.0833 39.9271 46.625 41.6041 47.2604 44.0416C47.4792 44.8958 47.5938 45.0312 48.2917 45.0833C48.3958 45.7708 48.5104 46.4583 48.6146 47.1354C48.0104 47.4583 47.8958 47.7083 48.0208 48.3958C48.1458 49.0729 48.2708 49.75 48.3854 50.4271C48.5208 51.2812 48.1562 51.7083 47.2917 51.7083C45.75 51.7083 44.2188 51.6979 42.6771 51.6979C42.4896 51.5625 42.4687 51.3541 42.4271 51.1458C42.1771 49.75 41.9375 48.3541 41.7083 46.9583C41.3125 44.4896 40.0208 42.6458 37.8125 41.4583C36.8229 40.9271 35.7188 40.7708 34.6354 40.5417C33.0938 40.2187 31.5625 39.875 30.0208 39.5625C29.8021 39.5208 29.5104 39.5208 29.375 39.2396Z" fill="#E8B40D"/>
<path d="M29.3755 39.2396C30.6151 39.6041 31.8963 39.7812 33.1463 40.0833C34.4484 40.3958 35.7922 40.5312 37.063 41C39.438 41.875 40.9797 43.5416 41.6359 45.9687C42.0942 47.6771 42.2505 49.4583 42.5838 51.1979C42.6151 51.3646 42.6463 51.5312 42.6776 51.7083C42.2817 51.7916 42.0734 51.7187 42.0109 51.2396C41.7505 49.4687 41.438 47.6979 41.1359 45.9271C41.0317 45.3125 40.688 45.0104 40.2297 45.0937C39.7401 45.1771 39.4901 45.6146 39.5838 46.2083C39.8547 47.8958 40.1047 49.5833 40.4276 51.2604C40.5213 51.7708 40.3234 51.7396 39.9797 51.7291C35.9484 51.7187 31.9172 51.7291 27.8755 51.7291C21.938 51.7291 16.0005 51.7187 10.063 51.7396C9.55257 51.7396 9.46924 51.5937 9.55257 51.125C9.83382 49.5416 10.0838 47.9583 10.3547 46.375C10.3651 46.2916 10.3651 46.1979 10.3755 46.1146C10.4276 45.5 10.1776 45.125 9.70882 45.0729C9.25049 45.0208 8.90674 45.3541 8.81299 45.9479C8.53174 47.7187 8.24007 49.4896 7.96924 51.2708C7.91716 51.625 7.78174 51.7396 7.40674 51.7291C5.84424 51.6979 4.29216 51.7187 2.72966 51.7187C1.79216 51.7187 1.45882 51.3125 1.61507 50.3854C1.96924 48.3437 2.25049 46.2916 2.68799 44.2708C3.29216 41.4896 5.05257 39.7916 7.81299 39.1666C10.5734 38.5416 13.3442 37.9896 16.1047 37.3958C16.438 37.3229 16.7088 37.3437 17.0213 37.5312C20.7297 39.8125 24.6984 40.3854 28.9172 39.3229C29.0734 39.2916 29.2297 39.2708 29.3755 39.2396Z" fill="#FFC815"/>
<path d="M49.9792 50.5208C49.8959 49.6875 49.6979 48.8541 49.5834 48.0208C49.5 47.4479 49.2084 47.1562 48.6354 47.1354C48.1563 47.0729 48.0104 47.4062 47.8959 47.7708C47.8125 48.0417 47.8646 48.3229 47.9167 48.5937C48.0417 49.2187 48.1563 49.8542 48.2396 50.4896C48.3334 51.2083 48.0625 51.5104 47.3229 51.5625C47.1459 51.5729 46.9792 51.5729 46.8021 51.5729C45.4375 51.5729 44.0729 51.5625 42.7084 51.5729C42.2396 51.6042 42.1875 51.2708 42.1354 50.9375C41.875 49.2291 41.6042 47.5104 41.2813 45.8125C41.1667 45.2083 40.7188 44.8854 40.2188 44.9687C39.7188 45.0521 39.4167 45.5104 39.4479 46.0937C39.4584 46.1979 39.4792 46.3021 39.4896 46.4062C39.7396 47.875 39.9584 49.3437 40.2084 50.8125C40.3334 51.5521 40.3229 51.5729 39.5521 51.5729C35.1146 51.5729 30.6875 51.5729 26.25 51.5729C20.9688 51.5729 15.6875 51.5729 10.4063 51.5729C9.69795 51.5729 9.6667 51.5312 9.78128 50.8229C9.96878 49.6458 10.1771 48.4687 10.3646 47.2812C10.4375 46.8021 10.5521 46.3229 10.5104 45.8333C10.4688 45.3646 10.1459 45.0104 9.70836 44.9479C9.31253 44.8958 8.96878 45.1146 8.78128 45.5521C8.68753 45.7604 8.6667 45.9896 8.62503 46.2083C8.3542 47.7917 8.11461 49.3854 7.8542 50.9791C7.7917 51.3541 7.64586 51.5729 7.21878 51.5625C5.7292 51.5521 4.23961 51.5729 2.75003 51.5521C1.92711 51.5416 1.62503 51.1666 1.77086 50.3437C2.11461 48.4166 2.40628 46.4791 2.77086 44.5625C3.31253 41.75 5.15628 39.875 7.95836 39.2812C10.5 38.75 13.0521 38.2291 15.5729 37.6458C16.2604 37.4896 16.8125 37.5833 17.4271 37.9479C19.8229 39.375 22.4479 40.0104 25.2188 40C26.6042 39.9896 27.9792 39.7708 29.3125 39.3646C30.5729 38.9791 31.7709 38.4375 32.8854 37.7396C33.2396 37.5208 33.5625 37.4792 33.9688 37.5625C36.6875 38.1458 39.4063 38.7187 42.125 39.3021C44.6875 39.8646 46.3125 41.4375 47.0834 43.9271C47.1459 44.1458 47.1771 44.3646 47.2709 44.5729C47.4792 45.0521 47.8125 45.2187 48.2917 45.0729C48.9167 44.7604 49.0104 44.5625 48.8125 43.7708C47.9792 40.5208 45.9479 38.4271 42.6667 37.6667C39.3542 36.8958 36.0313 36.2187 32.7084 35.5208C31.8854 35.3541 31.4792 34.8229 31.2396 34.0937C31.0625 33.5312 31.2188 32.9583 31.1459 32.3958C31 31.3437 31.3646 30.6146 32.1875 29.9167C34.75 27.75 36.4063 25.0521 36.5417 21.5937C36.5521 21.3646 36.6563 21.3542 36.8334 21.3542C37.3021 21.3542 37.7813 21.2187 38.0104 20.8229C38.25 20.4167 38.5521 20.3958 38.9479 20.3854C40.0729 20.3646 40.7084 19.7083 40.7084 18.5937C40.7084 16.4479 40.7084 14.3021 40.7084 12.1562C40.7084 11.1354 40.1354 10.4792 39.125 10.4062C38.6354 10.375 38.1875 10.375 37.9271 9.85415C37.8229 9.64582 37.5625 9.55207 37.3125 9.49998C37.1042 9.45832 37 9.35415 36.9688 9.11457C36.3542 5.64582 34.4584 3.08332 31.3229 1.52082C27.5 -0.375014 23.5417 -0.489597 19.5938 1.11457C16.0313 2.55207 13.7917 5.17707 13.0417 8.99999C12.9896 9.28124 12.9271 9.5104 12.5625 9.55207C12.3125 9.58332 12.0521 9.7604 11.9479 9.98957C11.75 10.4062 11.4271 10.3958 11.0521 10.4062C9.90628 10.4271 9.27086 11.0833 9.25003 12.2292C9.23961 12.7292 9.25003 13.2292 9.25003 13.7396C9.25003 14.625 9.25003 14.6771 8.36461 14.6146C6.59378 14.5 5.34378 15.9062 5.36461 17.6042C5.4167 24.3229 5.37503 31.0417 5.39586 37.7604C5.39586 38.2083 5.25003 38.4166 4.88545 38.6458C3.00003 39.7916 1.73961 41.4271 1.2292 43.5833C0.729198 45.6875 0.479198 47.8333 0.0833647 49.9479C-0.020802 50.5312 -0.083302 51.1042 0.135448 51.6875C0.437531 52.5208 1.1042 52.9375 1.8542 53.2812C17.2709 53.2812 32.6771 53.2812 48.0938 53.2812C48.125 53.25 48.1563 53.1979 48.1875 53.1771C49.4688 52.7708 50.1146 51.8437 49.9792 50.5208ZM6.95836 37.2708C6.95836 33.9791 6.95836 30.6979 6.95836 27.4062C6.95836 24.1875 6.95836 20.9687 6.95836 17.75C6.95836 16.4583 7.87503 15.8021 9.12503 16.1771C9.34378 16.2396 9.26045 16.3854 9.26045 16.5104C9.27086 17.1875 9.26045 17.8646 9.26045 18.5312C9.27086 19.7396 9.9167 20.3958 11.125 20.3958C11.4688 20.3958 11.7292 20.4167 11.9271 20.7708C12.1459 21.1667 12.5834 21.3646 13.0313 21.3437C13.3959 21.3333 13.4479 21.5 13.4688 21.7917C13.5521 23.0729 13.8438 24.3125 14.3542 25.4896C14.9375 26.8437 15.8334 27.9792 16.8646 29.0104C17.4063 29.5521 17.9479 30.0729 18.5209 30.5833C18.7396 30.7812 18.8542 30.9792 18.8438 31.2917C18.8229 32.0208 18.8438 32.75 18.8334 33.4687C18.8229 34.6354 18.2813 35.3125 17.1563 35.5521C13.8854 36.25 10.6146 36.9375 7.3542 37.6458C6.9167 37.7604 6.95836 37.5416 6.95836 37.2708Z" fill="#010101"/>
<path d="M27.9059 19.7292C27.4997 19.7709 27.1768 19.5625 26.8434 19.3959C25.6247 18.7709 24.3955 18.7396 23.1976 19.3959C22.4059 19.8334 21.5518 19.8438 20.6872 19.8021C20.1247 19.7813 19.7601 19.9896 19.6247 20.5521C18.958 20.8334 18.2705 20.6979 17.583 20.6459C17.4788 20.0104 17.2705 19.8125 16.6247 19.8125C15.6038 19.8021 14.583 19.8125 13.5622 19.8125C13.333 19.8125 13.1768 19.8229 13.1768 19.5C13.1976 16.6979 13.1976 13.8959 13.208 11.0938C13.3747 11 13.5518 11.0417 13.7184 11.0417C19.4997 11.0417 25.2809 11.0417 31.0726 11.0417C31.6872 11.0417 31.7393 11.0834 31.7601 11.7188C31.7705 12.0521 31.7809 12.375 31.7288 12.7084C31.4372 14.3646 31.4372 16.0209 31.7184 17.6771C31.7913 18.2292 31.7705 18.7813 31.7497 19.3229C31.7393 19.5521 31.708 19.7813 31.3747 19.7709C30.208 19.7396 29.0622 19.8021 27.9059 19.7292Z" fill="#DAE5EA"/>
<path d="M17.5833 20.6458C18.2604 20.4375 18.9479 20.6041 19.625 20.552C19.8437 21.2395 20.0104 21.3437 20.7291 21.3854C21.9166 21.4375 23.0521 21.302 24.1146 20.6979C24.5937 20.427 25.1979 20.3645 25.6562 20.625C26.9375 21.3333 28.3021 21.4479 29.7083 21.4062C30.0208 22 29.7812 22.6041 29.6666 23.177C29.2708 25.1145 28.3958 26.8125 26.9687 28.2291C25.8021 29.3854 24.625 30.5312 23.375 31.5937C23.1979 31.75 23.0208 31.9375 22.75 31.8958C22.375 31.8645 22.1354 31.5937 21.8646 31.3958C20.0312 29.9895 18.3229 28.4479 16.8541 26.6666C15.6979 25.25 15.1666 23.5625 15.0416 21.75C15.0208 21.4895 15.0625 21.375 15.3646 21.3958C15.7916 21.4166 16.2291 21.4062 16.6666 21.3958C17.1458 21.3645 17.4791 21.1562 17.5833 20.6458Z" fill="#FFEDE1"/>
<path d="M30.2288 9.40623C28.6663 9.41665 27.1143 9.42706 25.5518 9.42706C22.083 9.42706 18.6247 9.42706 15.1559 9.42706C14.9684 9.42706 14.7809 9.42706 14.583 9.42706C15.2913 4.89581 19.1143 2.1354 23.6351 1.71873C23.9788 1.62498 24.2913 1.7604 24.583 1.89581C27.458 3.28123 29.4059 5.45831 30.1768 8.60415C30.2497 8.86456 30.3747 9.1354 30.2288 9.40623Z" fill="#FEEDE1"/>
<path d="M22.7393 31.875C24.6143 30.4271 26.3851 28.8438 27.8434 26.9792C29.1038 25.375 29.708 23.4583 29.6976 21.3958C31.3538 21.3854 33.0205 21.3958 34.6768 21.375C34.9893 21.375 34.9893 21.5104 34.9788 21.75C34.7913 24.0729 33.8955 26.0729 32.2393 27.7188C30.9788 28.9688 29.6976 30.2187 28.2705 31.2812C26.5622 32.5625 24.6872 32.5729 22.7393 31.875Z" fill="#FEE0CC"/>
<path d="M27.9066 19.7292C28.9587 19.7188 30.0212 19.6979 31.0732 19.7188C31.5003 19.7292 31.6149 19.5834 31.5837 19.1875C31.5524 18.6667 31.5732 18.1459 31.5837 17.625C32.0837 17.4896 32.2503 17.1667 32.1774 16.6667C32.1462 16.4688 32.167 16.25 32.1774 16.0417C32.1878 15.8334 32.2191 15.6146 32.4795 15.5625C32.7399 15.5 32.9587 15.5729 33.1045 15.8229C33.3024 16.1667 33.4691 16.5313 33.6462 16.8854C33.6982 16.9792 33.7295 17.0729 33.792 17.1563C33.9066 17.3229 34.0003 17.5729 34.2607 17.4271C34.4899 17.2917 34.3962 17.0625 34.3232 16.875C34.1878 16.5521 34.0003 16.2604 33.8337 15.9584C33.6774 15.6771 33.6774 15.4479 33.9795 15.25C34.5107 14.875 34.5524 14.3334 34.417 13.7604C34.2816 13.1875 33.8128 13 33.292 12.9167C32.8128 12.8438 32.3232 12.9167 31.8441 12.875C31.7607 12.8646 31.6774 12.8438 31.6149 12.7813C31.6149 12.3334 31.6045 11.8854 31.6045 11.4375C31.6045 11.1979 31.5107 11.0834 31.2712 11.1042C31.1357 11.1146 30.9899 11.1042 30.8545 11.1042C24.9795 11.1042 19.1045 11.1042 13.2295 11.1042C13.3441 10.8959 13.542 11.0104 13.6878 11.0104C21.2399 11.0104 28.792 11.0104 36.3441 11C36.7191 11 36.8857 11.0521 36.8857 11.5C36.8649 14.1146 36.8753 16.7292 36.8753 19.3438C36.8753 19.6042 36.917 19.8334 36.5003 19.8334C33.7816 19.8125 31.0628 19.8229 28.3441 19.8334C28.167 19.8125 28.0212 19.8229 27.9066 19.7292Z" fill="#CAD2D3"/>
<path d="M30.2288 9.4062C29.9268 7.89579 29.4372 6.45828 28.4893 5.20828C27.2288 3.55203 25.6559 2.33328 23.6455 1.7187C25.2184 1.49995 26.7809 1.62495 28.3018 2.05203C30.4997 2.6562 32.4163 3.70828 33.8018 5.58328C34.6455 6.7187 35.1768 7.98954 35.4163 9.4062C33.6768 9.4062 31.958 9.4062 30.2288 9.4062Z" fill="#FEE0CC"/>
<path d="M24.208 33.8646C25.4788 33.9167 26.7184 33.8333 27.9163 33.3438C28.5101 33.0937 28.9997 32.6875 29.6247 32.25C29.4893 34.0417 29.6872 35.6458 31.2913 36.7083C29.3955 37.6562 27.4476 38.25 25.3538 38.2187C24.583 37.7187 24.333 36.9375 24.2809 36.0833C24.2288 35.3542 24.3018 34.6042 24.208 33.8646Z" fill="#FEE0CC"/>
<path d="M24.2083 33.8646C24.4167 33.9896 24.4167 34.1875 24.4167 34.4062C24.4062 34.9896 24.4062 35.5729 24.4167 36.1563C24.4375 36.9792 24.8854 37.6042 25.3542 38.2188C24.3542 38.3125 23.3646 38.1875 22.375 38C21.1042 37.7604 19.9062 37.3229 18.7188 36.7083C20.2917 35.6354 20.5313 34.0729 20.3854 32.2188C21.5417 33.2604 22.8229 33.6979 24.2083 33.8646Z" fill="#FEEDE1"/>
<path d="M10.8955 15.4062C10.8955 14.4166 10.9059 13.4375 10.8955 12.4479C10.8955 12.1562 10.9476 12 11.2913 12.0104C11.6351 12.0208 11.6351 12.2083 11.6351 12.4479C11.6351 14.4166 11.6247 16.3854 11.6351 18.3541C11.6351 18.6458 11.583 18.802 11.2393 18.7916C10.8955 18.7812 10.8955 18.5937 10.8955 18.3541C10.8955 17.375 10.8955 16.3854 10.8955 15.4062Z" fill="#465058"/>
<path d="M39.1663 15.4062C39.1663 16.3958 39.1559 17.375 39.1663 18.3646C39.1663 18.6354 39.1247 18.7812 38.8018 18.7812C38.4893 18.7812 38.4268 18.6354 38.4268 18.3646C38.4372 16.375 38.4372 14.3854 38.4268 12.3958C38.4268 12.1042 38.5309 12 38.8226 12C39.1143 12 39.1663 12.1354 39.1663 12.3854C39.1559 13.4063 39.1663 14.4062 39.1663 15.4062Z" fill="#323E44"/>
<path d="M31.5934 12.7708C32.2288 12.7604 32.8747 12.6979 33.5101 12.8229C34.1143 12.9375 34.5101 13.2604 34.583 13.7916C34.6663 14.3958 34.6351 15 34.0309 15.3437C33.7393 15.5104 33.8018 15.6354 33.9268 15.8541C34.1143 16.1666 34.2705 16.4895 34.4476 16.8125C34.6143 17.1041 34.7601 17.3958 34.3747 17.6041C33.9476 17.8333 33.8018 17.5104 33.6559 17.1979C33.4476 16.7604 33.1976 16.3437 32.9997 15.9062C32.8747 15.625 32.6768 15.6145 32.4476 15.6562C32.1768 15.6979 32.3226 15.9375 32.3122 16.0833C32.2913 16.375 32.3018 16.6666 32.3018 16.9687C32.3018 17.6354 32.2809 17.6562 31.583 17.6354C31.4372 17.5 31.3955 17.3229 31.3955 17.125C31.4059 15.8645 31.4059 14.6041 31.3955 13.3541C31.3955 13.125 31.4268 12.927 31.5934 12.7708Z" fill="#030303"/>
<path d="M29.1454 16.3645C29.4371 15.302 29.7288 14.2603 30.0204 13.2187C30.0934 12.9478 30.1559 12.677 30.5725 12.802C30.9684 12.927 30.9684 13.1249 30.8538 13.4687C30.4579 14.6978 30.0725 15.927 29.7288 17.177C29.6246 17.552 29.4059 17.6874 29.0621 17.6874C28.7392 17.6874 28.5413 17.5312 28.4475 17.1874C28.0934 15.9478 27.7079 14.7187 27.3121 13.4895C27.2079 13.1666 27.1871 12.9374 27.5934 12.8228C28.0413 12.6874 28.0725 12.9895 28.1559 13.2812C28.4267 14.2395 28.6975 15.1978 28.9788 16.1666C29.01 16.2291 29.01 16.3124 29.1454 16.3645Z" fill="#020303"/>
<path d="M32.3025 14.2188C32.3754 13.9584 32.0733 13.4792 32.7504 13.5313C33.4691 13.5834 33.7191 13.7188 33.74 14.2188C33.7608 14.7396 33.49 14.8854 32.8025 14.9479C32.115 15.0209 32.3337 14.5729 32.3025 14.2188Z" fill="#C9D1D2"/>
</g>
<defs>
<clipPath id="clip0_112_569">
<rect width="50" height="53.2812" fill="white"/>
</clipPath>
</defs>
</svg>
