<svg width="60" height="60" viewBox="0 0 60 60" fill="none" xmlns="http://www.w3.org/2000/svg">
<path d="M45.928 60C35.231 60 24.5194 60 13.8224 60C13.7637 59.956 13.6903 59.912 13.6316 59.8826C11.548 59.193 10.5502 57.843 10.5502 55.6566C10.5502 53.8371 10.5502 52.0176 10.5502 50.2128C10.5502 50.0073 10.5502 49.8019 10.5502 49.6405C9.42033 49.2883 8.37851 48.9802 7.35136 48.6134C5.26772 47.865 3.25745 46.9846 1.59934 45.4439C0.630891 44.5488 -7.02348e-05 43.4776 -7.02348e-05 42.1277C-7.02348e-05 36.0528 -0.0147437 29.978 -7.02348e-05 23.9032C-7.02348e-05 22.7439 0.410788 21.7461 1.18848 20.8804C2.56779 19.3544 4.35796 18.5033 6.19215 17.7256C7.24865 17.2854 8.04102 17.799 8.04102 18.9435C8.05569 20.1908 8.04102 21.438 8.04102 22.6999C8.04102 24.4167 8.04102 26.1335 8.04102 27.8797C8.86273 28.1291 9.6551 28.3786 10.5208 28.6574C10.5208 28.3492 10.5208 28.1145 10.5208 27.8944C10.5208 20 10.5208 12.1203 10.5208 4.22597C10.5208 1.73147 12.223 0.0146735 14.7028 0.0146735C24.8275 0 34.9229 0 45.0183 0C45.3704 0 45.7226 0.0146735 46.0601 0.102715C48.0117 0.572267 49.2002 2.12766 49.2002 4.2113C49.2002 12.1056 49.2002 19.9853 49.2002 27.8797C49.2002 28.1145 49.2002 28.3346 49.2002 28.6427C50.066 28.3786 50.8583 28.1291 51.68 27.865C51.68 27.6156 51.68 27.4101 51.68 27.19C51.68 24.4314 51.68 21.6875 51.68 18.9288C51.68 17.7843 52.5018 17.2267 53.5289 17.7109C54.7028 18.2685 55.8913 18.8261 56.9919 19.5158C58.826 20.675 59.7945 22.2891 59.7652 24.5781C59.6918 30.3448 59.7358 36.0968 59.7505 41.8635C59.7505 43.3162 59.1782 44.4608 58.1511 45.4292C56.9185 46.5737 55.4805 47.3955 53.9251 47.9971C52.3844 48.5987 50.8143 49.0976 49.2002 49.6698C49.2002 49.8166 49.2002 50.022 49.2002 50.2421C49.2002 52.1203 49.2002 53.9985 49.2002 55.8621C49.2002 57.2414 48.6573 58.3859 47.5421 59.1783C47.0579 59.5451 46.4709 59.7359 45.928 60ZM57.3734 27.8503C55.906 28.5547 54.5414 29.3177 53.0887 29.8606C47.7622 31.8415 42.1863 32.6339 36.5517 33.0301C32.3844 33.3236 28.2024 33.3382 24.0205 33.0594C19.9119 32.7953 15.8327 32.3404 11.8121 31.4013C8.56926 30.6383 5.39978 29.7139 2.61182 27.821C2.55312 27.7916 2.47975 27.7916 2.36237 27.777C2.36237 28.0117 2.36237 28.2025 2.36237 28.4079C2.36237 32.8393 2.37704 37.2707 2.34769 41.7021C2.34769 42.6119 2.67051 43.3162 3.36016 43.8885C4.98892 45.2531 6.9405 46.0161 8.92143 46.6471C13.9251 48.2612 19.1195 48.8922 24.3433 49.2003C28.4372 49.4497 32.5311 49.4057 36.6397 49.1123C40.3228 48.8481 43.9765 48.3932 47.5715 47.5422C50.3007 46.8966 52.986 46.1042 55.4071 44.6075C56.6984 43.8151 57.4467 42.8173 57.4027 41.1445C57.3 36.9332 57.3734 32.7073 57.3734 28.496C57.3734 28.2612 57.3734 28.0411 57.3734 27.8503ZM26.0894 23.9325C26.2949 23.6537 26.4563 23.4336 26.603 23.2135C29.1562 19.6185 31.7094 16.0235 34.2626 12.4285C35.0843 11.2839 35.862 11.2839 36.6837 12.4431C39.9119 17.0066 43.1254 21.5554 46.3536 26.1189C46.4856 26.2949 46.6177 26.4857 46.8231 26.7792C46.8231 21.0125 46.8231 15.3925 46.8231 9.78723C35.4952 9.78723 24.2112 9.78723 12.942 9.78723C12.942 15.5979 12.942 21.35 12.942 27.234C13.3235 26.7205 13.6316 26.3243 13.9398 25.9281C15.8327 23.4189 17.7255 20.9098 19.6331 18.4153C20.3374 17.4908 21.1151 17.5055 21.8341 18.4153C21.9075 18.5033 21.9809 18.606 22.0542 18.6941C23.3748 20.3962 24.7101 22.1277 26.0894 23.9325ZM12.8979 50.1394C12.8979 52.1497 12.8686 54.0572 12.9126 55.9648C12.9273 57.0213 13.661 57.6376 14.7615 57.6522C24.8422 57.6522 34.9082 57.6522 44.9889 57.6522C46.1628 57.6522 46.8378 56.9773 46.8525 55.8034C46.8671 54.8496 46.8525 53.8958 46.8525 52.9274C46.8525 52.0176 46.8525 51.1079 46.8525 50.1394C42.2303 51.0932 37.6228 51.5334 32.9566 51.6948C32.9566 52.9567 32.9566 54.1599 32.9566 55.3632C32.9566 56.6104 32.5898 56.9773 31.3572 56.9773C30.5208 56.9773 29.6845 56.9773 28.8334 56.9773C26.9552 56.9773 26.7644 56.7865 26.7644 54.8936C26.7644 53.8225 26.7644 52.766 26.7644 51.6801C22.0982 51.5334 17.5054 51.0785 12.8979 50.1394ZM12.8979 7.35143C24.2406 7.35143 35.5098 7.35143 46.8525 7.35143C46.8525 6.38298 46.8525 5.45855 46.8525 4.51944C46.8525 2.92003 46.2655 2.33309 44.6661 2.33309C34.8055 2.33309 24.9449 2.33309 15.0843 2.33309C14.9229 2.33309 14.7762 2.33309 14.6147 2.33309C13.6316 2.37711 12.9566 2.9934 12.9126 3.9912C12.8686 5.09171 12.8979 6.17755 12.8979 7.35143ZM42.5678 24.8129C41.614 25.752 40.763 25.2971 39.8679 24.7395C38.6206 23.9472 37.3147 23.2428 36.0381 22.4798C35.7593 22.3037 35.5392 22.3037 35.2457 22.4798C33.7784 23.3602 32.2817 24.1966 30.8143 25.0917C30.2127 25.4585 29.6551 25.5026 29.0682 25.0917C28.8627 24.945 28.6426 24.8569 28.4079 24.7249C26.9845 26.7205 25.6052 28.672 24.1525 30.7117C31.4599 31.1079 38.5913 30.8291 45.7813 29.4497C44.7101 27.8797 43.6536 26.383 42.5678 24.8129ZM20.7483 20.8511C18.5473 23.7564 16.3902 26.6031 14.1599 29.5525C16.5223 29.8606 18.738 30.1541 20.9537 30.4622C21.3059 30.5062 21.526 30.3888 21.7314 30.0954C22.4064 29.0976 23.1254 28.1145 23.8297 27.1313C24.6808 25.9428 24.6808 25.9428 23.8004 24.7836C22.7732 23.507 21.7901 22.2157 20.7483 20.8511ZM29.8459 22.7439C29.8752 22.7733 29.9046 22.8026 29.9339 22.832C30.0953 22.7439 30.2714 22.6706 30.4181 22.5825C31.8268 21.7608 33.2648 20.9538 34.6441 20.088C35.3484 19.6478 35.95 19.6625 36.6397 20.1027C37.8429 20.8657 39.0902 21.5554 40.3227 22.2597C40.4988 22.3624 40.6749 22.4505 40.851 22.5385C40.8657 22.5092 40.8803 22.4945 40.9097 22.4652C39.1048 19.9266 37.3 17.3881 35.4658 14.8056C33.5583 17.4908 31.6947 20.1174 29.8459 22.7439ZM5.66391 20.5576C4.53405 21.1592 3.5069 21.7021 2.7879 22.6706C2.27432 23.3749 2.25965 24.0059 2.75855 24.7102C3.49223 25.708 4.53405 26.2949 5.66391 26.8379C5.66391 24.7395 5.66391 22.6999 5.66391 20.5576ZM54.0865 20.5869C54.0865 22.7293 54.0865 24.7542 54.0865 26.8379C55.187 26.2949 56.2142 25.7373 56.9332 24.7689C57.4908 24.0205 57.4908 23.3749 56.9332 22.6412C56.2142 21.6875 55.187 21.1445 54.0865 20.5869ZM29.2002 53.2062C29.2002 53.6904 29.2002 54.1306 29.2002 54.5708C29.6845 54.5708 30.11 54.5708 30.5502 54.5708C30.5502 54.1012 30.5502 53.661 30.5502 53.2062C30.0953 53.2062 29.6551 53.2062 29.2002 53.2062Z" fill="#FFC815"/>
<path d="M30.8438 47.6742C24.1233 47.5862 18.4006 47.234 12.7807 45.9281C11.7535 45.6933 10.741 45.3998 9.74325 45.1063C8.92153 44.8716 8.51067 44.2699 8.70143 43.6096C8.89218 42.9053 9.55249 42.5825 10.4036 42.8466C13.0888 43.683 15.8328 44.2699 18.6207 44.5634C21.3793 44.8569 24.138 45.1063 26.8966 45.2237C30.7997 45.3998 34.7029 45.2677 38.5914 44.8862C42.8614 44.446 47.102 43.8004 51.1079 42.1863C51.7975 41.9075 52.4285 41.526 53.0741 41.1592C53.7931 40.7483 54.4534 40.8217 54.835 41.3793C55.2458 41.9809 55.0844 42.6559 54.3801 43.1254C52.5606 44.3433 50.5063 45.0183 48.408 45.5612C44.6809 46.5443 40.8951 47.1166 37.0507 47.3367C34.6589 47.4834 32.2524 47.6008 30.8438 47.6742Z" fill="#FFC815"/>
<path d="M5.83993 40.8951C6.52958 40.8804 7.02848 41.3647 7.04315 42.0396C7.05783 42.7146 6.5736 43.2282 5.88395 43.2429C5.25299 43.2575 4.71007 42.7146 4.68072 42.0543C4.66604 41.438 5.19429 40.8951 5.83993 40.8951Z" fill="#FFC815"/>
<path d="M27.5862 6.08944C25.9721 6.08944 24.3434 6.08944 22.7293 6.08944C21.8489 6.08944 21.3353 5.6639 21.3206 4.9449C21.3059 4.19655 21.8195 3.75635 22.7293 3.75635C25.9868 3.75635 29.259 3.75635 32.5165 3.75635C33.3676 3.75635 33.9252 4.21123 33.9398 4.90088C33.9545 5.60521 33.3822 6.08944 32.5018 6.10411C30.8731 6.08944 29.2296 6.08944 27.5862 6.08944Z" fill="#FFC815"/>
<path d="M38.4298 4.9303C38.4298 5.57593 37.9163 6.08951 37.2853 6.08951C36.6103 6.08951 36.0821 5.56126 36.0967 4.90095C36.1114 4.24065 36.625 3.74175 37.3146 3.75642C37.9603 3.77109 38.4298 4.26999 38.4298 4.9303Z" fill="#FFC815"/>
</svg>
