<svg width="70" height="70" viewBox="0 0 70 70" fill="none" xmlns="http://www.w3.org/2000/svg">
<path fill-rule="evenodd" clip-rule="evenodd" d="M33.4614 54.204V35.7424H36.5383V54.204H33.4614Z" fill="#FFC815"/>
<path fill-rule="evenodd" clip-rule="evenodd" d="M34.2016 37.2593L17.2786 26.8785L18.8753 24.2754L35.7984 34.6562L34.2016 37.2593Z" fill="#FFC815"/>
<path fill-rule="evenodd" clip-rule="evenodd" d="M34.1956 34.6461L51.1186 24.2654L52.7275 26.8882L35.8044 37.2689L34.1956 34.6461Z" fill="#FFC815"/>
<path fill-rule="evenodd" clip-rule="evenodd" d="M34.7986 13.3469L53.4617 24.7125V45.1941L35.005 56.654L16.5386 45.3265V24.7227L34.7986 13.3469ZM34.817 16.9607L19.6155 26.431V43.6042L34.9952 53.0383L50.3847 43.4828V26.4413L34.817 16.9607Z" fill="#FFC815"/>
<path fill-rule="evenodd" clip-rule="evenodd" d="M66.9234 64.6154V50.7693H70.0003V64.6154C70.0003 66.0435 69.433 67.4131 68.4232 68.4229C67.4134 69.4328 66.0438 70.0001 64.6157 70.0001H50.7695V66.9231H64.6157C65.2277 66.9231 65.8147 66.68 66.2475 66.2472C66.6802 65.8145 66.9234 65.2275 66.9234 64.6154Z" fill="#FFC815"/>
<path fill-rule="evenodd" clip-rule="evenodd" d="M64.6157 3.07692H50.7695V0H64.6157C66.0438 0 67.4134 0.567305 68.4232 1.57712C69.433 2.58693 70.0003 3.95653 70.0003 5.38461V19.2308H66.9234V5.38461C66.9234 4.77257 66.6802 4.1856 66.2475 3.75283C65.8147 3.32006 65.2277 3.07692 64.6157 3.07692Z" fill="#FFC815"/>
<path fill-rule="evenodd" clip-rule="evenodd" d="M5.38461 3.07692C4.77258 3.07692 4.18561 3.32005 3.75283 3.75283C3.32005 4.18561 3.07692 4.77258 3.07692 5.38461V19.2308H0V5.38461C0 3.95653 0.567306 2.58693 1.57712 1.57712C2.58693 0.567306 3.95653 0 5.38461 0H19.2308V3.07692H5.38461Z" fill="#FFC815"/>
<path fill-rule="evenodd" clip-rule="evenodd" d="M3.07692 50.7693V64.6154C3.07692 65.2275 3.32006 65.8145 3.75283 66.2472C4.1856 66.68 4.77257 66.9231 5.38461 66.9231H19.2308V70.0001H5.38461C3.95653 70.0001 2.58693 69.4328 1.57712 68.4229C0.567305 67.4131 0 66.0435 0 64.6154V50.7693H3.07692Z" fill="#FFC815"/>
</svg>
