<svg width="65" height="66" viewBox="0 0 65 66" fill="none" xmlns="http://www.w3.org/2000/svg">
<path d="M9.90347 0C10.6327 0.373076 10.887 0.966606 10.8531 1.76363C10.8192 2.49283 10.8531 3.23898 10.8531 4.05296C12.2098 4.05296 13.5155 4.05296 14.8213 4.05296C15.6522 4.05296 16.2288 4.57866 16.2627 5.34177C16.2966 6.13879 15.754 6.73232 14.8891 6.76624C13.8038 6.80016 12.7185 6.7832 11.6332 6.7832C11.3958 6.7832 11.1753 6.7832 10.8362 6.7832C10.8362 7.56327 10.8362 8.29246 10.8362 9.02165C10.8362 10.4122 10.3953 10.8362 9.02165 10.8362C8.30942 10.8362 7.59718 10.8362 6.7832 10.8362C6.7832 11.7519 6.7832 12.6167 6.7832 13.4646C6.7832 13.9903 6.80016 14.533 6.74928 15.0417C6.68145 15.7879 6.08792 16.2627 5.35873 16.2288C4.64649 16.1949 4.10384 15.6522 4.08688 14.923C4.06992 14.2447 4.08688 13.5664 4.08688 12.8881C4.08688 12.2267 4.08688 11.5823 4.08688 10.8362C3.32377 10.8362 2.59457 10.8022 1.84842 10.8362C1.01748 10.887 0.390034 10.6496 0 9.90347C0 6.61362 0 3.32377 0 0C3.30681 0 6.59666 0 9.90347 0ZM8.07201 8.10592C8.07201 6.29142 8.07201 4.52778 8.07201 2.78111C6.2575 2.78111 4.51083 2.78111 2.7472 2.78111C2.7472 4.59562 2.7472 6.32533 2.7472 8.10592C4.54474 8.10592 6.29142 8.10592 8.07201 8.10592Z" fill="#FFC815"/>
<path d="M64.1012 0C64.7965 0.42395 65.017 1.03444 65 1.86538C64.9491 4.32429 64.9831 6.76624 64.9831 9.22515C64.9831 10.3274 64.5082 10.8192 63.4229 10.8362C62.6598 10.8531 61.8967 10.8531 61.1336 10.8531C61.0997 10.8531 61.0488 10.8701 60.9131 10.9209C60.9131 11.8706 60.9131 12.8542 60.9131 13.8377C60.9131 14.1938 60.9301 14.55 60.9131 14.923C60.8792 15.6692 60.3535 16.2118 59.6413 16.2458C58.8951 16.2797 58.2677 15.7879 58.2338 15.0078C58.1829 13.8547 58.1999 12.6846 58.1999 11.5145C58.1999 11.3279 58.1999 11.1414 58.1999 10.8362C57.4537 10.8362 56.7415 10.8362 56.0292 10.8362C54.5539 10.8362 54.1469 10.4292 54.1469 8.95382C54.1469 8.25854 54.1469 7.56327 54.1469 6.76624C53.6042 6.76624 53.1294 6.76624 52.6546 6.76624C51.7389 6.76624 50.8401 6.7832 49.9244 6.73233C49.1782 6.68145 48.7034 6.07096 48.7373 5.34177C48.7712 4.62953 49.3139 4.06992 50.0431 4.06992C51.3658 4.05296 52.7055 4.06992 54.1299 4.06992C54.1299 3.30681 54.1639 2.56066 54.1299 1.83146C54.096 1.01748 54.3334 0.390034 55.0965 0C58.0981 0 61.0997 0 64.1012 0ZM62.2359 2.79807C60.4214 2.79807 58.6577 2.79807 56.9111 2.79807C56.9111 4.61258 56.9111 6.35925 56.9111 8.10592C58.7086 8.10592 60.4553 8.10592 62.2359 8.10592C62.2359 6.32533 62.2359 4.57866 62.2359 2.79807Z" fill="#FFC815"/>
<path d="M0 55.0966C0.390034 54.3505 1.01748 54.1131 1.83146 54.147C2.5437 54.1809 3.25594 54.147 4.06992 54.147C4.06992 52.7903 4.06992 51.4846 4.06992 50.1788C4.06992 49.3479 4.59562 48.7713 5.35873 48.7374C6.15575 48.7035 6.74928 49.2292 6.76624 50.111C6.80016 51.1963 6.7832 52.2647 6.7832 53.35C6.7832 53.5874 6.7832 53.8078 6.7832 54.147C7.56327 54.147 8.29246 54.147 9.02165 54.147C10.3953 54.147 10.8362 54.5879 10.8362 55.9785C10.8362 56.6907 10.8362 57.4029 10.8362 58.2169C11.8706 58.2169 12.8372 58.2169 13.8038 58.2169C14.1769 58.2169 14.5669 58.1999 14.94 58.2339C15.7709 58.3017 16.2797 58.8783 16.2458 59.6583C16.2118 60.3875 15.6522 60.9302 14.8552 60.9302C13.5664 60.9471 12.2776 60.9471 10.9888 60.9641C10.9718 60.9641 10.9549 60.9811 10.8362 61.015C10.8362 61.7611 10.8362 62.5412 10.8362 63.3213C10.8192 64.5422 10.3613 65.0171 9.15732 65.0171C6.73232 65.0171 4.29037 64.9831 1.86538 65.034C1.03444 65.051 0.440908 64.8305 0 64.1353C0 61.1167 0 58.1152 0 55.0966ZM8.10592 56.9281C6.29142 56.9281 4.52779 56.9281 2.78111 56.9281C2.78111 58.7426 2.78111 60.4893 2.78111 62.2529C4.59562 62.2529 6.32533 62.2529 8.10592 62.2529C8.10592 60.4554 8.10592 58.7087 8.10592 56.9281Z" fill="#FFC815"/>
<path d="M13.4985 32.4576C13.4985 28.8965 13.4985 25.3522 13.4985 21.7911C13.4985 21.0958 13.8547 20.587 14.516 20.3327C20.1969 18.162 25.8609 15.9914 31.5249 13.8038C32.2032 13.5325 32.7967 13.5325 33.4751 13.8038C39.139 15.9914 44.803 18.162 50.4839 20.3327C51.1453 20.587 51.5014 21.0788 51.5014 21.7741C51.4844 28.7608 51.4844 35.7305 51.4675 42.7172C51.4675 44.1247 51.3488 44.3113 50.0261 44.82C44.396 46.9906 38.7659 49.1613 33.1359 51.298C32.7628 51.4336 32.2371 51.4506 31.864 51.298C26.1492 49.1273 20.4344 46.9058 14.7365 44.7183C13.7359 44.3282 13.5325 44.0399 13.5325 42.9716C13.5325 39.4613 13.5325 35.951 13.5325 32.4407C13.5155 32.4576 13.4985 32.4576 13.4985 32.4576ZM33.882 48.076C34.1025 48.0081 34.2551 47.9742 34.4077 47.9233C39.0203 46.1597 43.6159 44.3791 48.2285 42.6155C48.6694 42.4459 48.7542 42.2085 48.7542 41.7845C48.7373 35.9849 48.7542 30.1853 48.7542 24.4026C48.7542 24.1991 48.7542 23.9956 48.7542 23.7073C48.4829 23.7921 48.2963 23.843 48.0928 23.9108C43.5481 25.6575 39.0034 27.4211 34.4586 29.1508C34.0008 29.3204 33.8651 29.5239 33.8651 29.9987C33.882 35.8153 33.882 41.6319 33.882 47.4485C33.882 47.652 33.882 47.8385 33.882 48.076ZM16.2457 23.6564C16.2457 23.9617 16.2457 24.1652 16.2457 24.3687C16.2457 30.1683 16.2627 35.9679 16.2288 41.7506C16.2288 42.2763 16.4153 42.4798 16.8732 42.6494C20.18 43.9043 23.4868 45.1931 26.7936 46.448C28.2011 46.9906 29.6256 47.5333 31.084 48.076C31.1009 47.9064 31.1179 47.8046 31.1179 47.7029C31.1179 41.7337 31.1179 35.7644 31.1349 29.8122C31.1349 29.4052 30.9483 29.2865 30.6261 29.1678C27.0989 27.8281 23.5716 26.4715 20.0443 25.1148C18.8064 24.64 17.5685 24.1652 16.2457 23.6564ZM46.2953 21.6723C41.6997 19.9087 37.2397 18.196 32.7798 16.5002C32.5593 16.4154 32.2371 16.4662 32.0167 16.568C29.2016 17.6363 26.3866 18.7217 23.5716 19.807C21.9945 20.4175 20.4174 21.0279 18.7555 21.6554C18.976 21.7571 19.0777 21.808 19.1964 21.8589C23.4868 23.5038 27.7772 25.1657 32.0845 26.7937C32.3558 26.8954 32.7459 26.8785 33.0341 26.7597C35.6457 25.7762 38.2403 24.7587 40.8348 23.7582C42.5985 23.0799 44.379 22.4015 46.2953 21.6723Z" fill="#FFC815"/>
<path d="M54.1468 60.947C52.7392 60.947 51.4165 60.9639 50.0938 60.947C49.4324 60.947 48.8898 60.4891 48.7711 59.8956C48.6354 59.2681 48.9576 58.6068 49.5342 58.3863C49.8055 58.2846 50.1108 58.2506 50.399 58.2506C51.4165 58.2337 52.434 58.2506 53.4515 58.2506C53.655 58.2506 53.8585 58.2337 54.1468 58.2167C54.1468 57.4197 54.1468 56.6735 54.1468 55.9104C54.1637 54.6386 54.6046 54.1977 55.8765 54.1807C56.6226 54.1807 57.3518 54.1807 58.1658 54.1807C58.1828 53.9264 58.1997 53.7059 58.1997 53.4854C58.1997 52.4001 58.1828 51.3318 58.2167 50.2465C58.2336 49.3138 58.7933 48.7542 59.6072 48.7881C60.4043 48.805 60.913 49.3986 60.93 50.3313C60.93 51.6031 60.93 52.858 60.93 54.1977C61.7609 54.1977 62.541 54.1977 63.321 54.1977C64.542 54.2146 64.9999 54.6725 64.9999 55.8935C64.9999 58.4033 64.9999 60.93 64.9999 63.4398C64.9999 64.5421 64.5251 65.0169 63.4228 65.0338C60.8621 65.0338 58.3015 65.0338 55.7408 65.0338C54.6894 65.0338 54.1976 64.559 54.1637 63.4907C54.1298 62.6428 54.1468 61.8288 54.1468 60.947ZM62.2357 62.2527C62.2357 60.4213 62.2357 58.6746 62.2357 56.9279C60.4382 56.9279 58.6745 56.9279 56.9109 56.9279C56.9109 58.7255 56.9109 60.4891 56.9109 62.2527C58.7085 62.2527 60.4551 62.2527 62.2357 62.2527Z" fill="#FFC815"/>
<path d="M39.2238 6.7831C38.3929 6.7831 37.5789 6.80006 36.748 6.7831C35.8153 6.76615 35.1709 6.18957 35.1878 5.40951C35.2048 4.61248 35.8322 4.08678 36.7819 4.06982C38.4438 4.06982 40.1226 4.06982 41.7845 4.06982C42.7341 4.06982 43.2937 4.56161 43.3277 5.37559C43.3616 6.20653 42.785 6.76615 41.8184 6.7831C40.9535 6.80006 40.0887 6.7831 39.2238 6.7831Z" fill="#FFC815"/>
<path d="M4.07004 39.2578C4.07004 38.3929 4.07004 37.5281 4.07004 36.6632C4.07004 35.8153 4.64661 35.2048 5.39276 35.1879C6.12195 35.1709 6.7494 35.7475 6.76636 36.5615C6.80027 38.376 6.80027 40.1905 6.76636 42.005C6.7494 42.8359 6.15587 43.3447 5.3758 43.3277C4.61269 43.3107 4.08699 42.7511 4.07004 41.9202C4.05308 41.0384 4.07004 40.1396 4.07004 39.2578Z" fill="#FFC815"/>
<path d="M25.7083 4.07004C26.5902 4.07004 27.4889 4.07004 28.3707 4.07004C29.1847 4.08699 29.7783 4.62965 29.7952 5.3758C29.8291 6.105 29.2526 6.7494 28.4555 6.76636C26.641 6.80027 24.8265 6.80027 23.012 6.76636C22.1472 6.7494 21.6215 6.13891 21.6723 5.34189C21.7062 4.57878 22.2828 4.08699 23.1138 4.07004C23.9786 4.05308 24.8435 4.07004 25.7083 4.07004Z" fill="#FFC815"/>
<path d="M4.06994 25.7422C4.06994 24.8604 4.05298 23.9617 4.06994 23.0798C4.08689 22.2828 4.57868 21.7232 5.32483 21.6893C6.1049 21.6384 6.73234 22.1471 6.7493 22.9611C6.78322 24.8096 6.78322 26.6749 6.7493 28.5234C6.73234 29.2865 6.08794 29.8461 5.3757 29.8122C4.62955 29.7952 4.06994 29.1847 4.05298 28.3877C4.05298 27.5059 4.06994 26.6241 4.06994 25.7422Z" fill="#FFC815"/>
<path d="M60.9304 25.7083C60.9304 26.5901 60.9304 27.4889 60.9304 28.3707C60.9134 29.1847 60.3877 29.7782 59.6416 29.8121C58.9124 29.8461 58.251 29.2864 58.251 28.4725C58.2171 26.641 58.2171 24.8095 58.251 22.9611C58.268 22.1302 58.8785 21.6384 59.6585 21.6723C60.4047 21.7062 60.9304 22.2489 60.9304 23.0459C60.9304 23.9447 60.9304 24.8265 60.9304 25.7083Z" fill="#FFC815"/>
<path d="M60.9298 39.2577C60.9298 40.1395 60.9298 41.0383 60.9298 41.9201C60.9128 42.751 60.3871 43.3106 59.624 43.3446C58.8439 43.3615 58.2504 42.8528 58.2334 42.0218C58.1995 40.1904 58.1995 38.3589 58.2334 36.5105C58.2504 35.7474 58.8778 35.1878 59.5901 35.2047C60.3362 35.2217 60.9128 35.8152 60.9298 36.6122C60.9298 37.4771 60.9298 38.3759 60.9298 39.2577Z" fill="#FFC815"/>
<path d="M25.7593 60.9471C24.8944 60.9471 24.0296 60.9471 23.1647 60.9471C22.2829 60.9471 21.7063 60.4384 21.6724 59.6583C21.6385 58.8613 22.1811 58.2677 23.046 58.2508C24.8435 58.2169 26.6241 58.2169 28.4217 58.2508C29.2357 58.2677 29.8122 58.8782 29.8122 59.6074C29.8122 60.3705 29.2018 60.9471 28.3539 60.9471C27.489 60.9471 26.6241 60.9471 25.7593 60.9471Z" fill="#FFC815"/>
<path d="M39.2578 60.9471C38.3929 60.9471 37.5281 60.9471 36.6632 60.9471C35.8153 60.9471 35.2048 60.3875 35.1879 59.6244C35.1709 58.8952 35.7475 58.2677 36.5615 58.2508C38.376 58.2169 40.1905 58.2169 42.005 58.2508C42.8359 58.2677 43.3447 58.8613 43.3277 59.6413C43.3107 60.4044 42.7511 60.9301 41.9202 60.9471C41.0214 60.9471 40.1396 60.9471 39.2578 60.9471Z" fill="#FFC815"/>
</svg>
