<svg width="54" height="60" viewBox="0 0 54 60" fill="none" xmlns="http://www.w3.org/2000/svg">
<path d="M3.92285 44.3081V53.9235C3.92285 56.0388 5.65362 57.7696 7.76901 57.7696H17.769C18.7305 57.7696 19.6921 57.385 20.4613 56.6158L24.3075 52.7696C25.8459 51.2311 28.1536 51.2311 29.6921 52.7696L33.5382 56.6158C34.3075 57.385 35.269 57.7696 36.2305 57.7696H46.2305C48.3459 57.7696 50.0767 56.0388 50.0767 53.9235V44.3081C50.0767 42.1927 48.3459 40.4619 46.2305 40.4619H7.76901C5.65362 40.4619 3.92285 42.1927 3.92285 44.3081Z" stroke="#FFC815" stroke-width="2.5" stroke-miterlimit="10" stroke-linecap="round" stroke-linejoin="round"/>
<path d="M52 9.69231C52 5.46154 40.8462 2 27 2C13.1538 2 2 5.46154 2 9.69231M2 9.69231C2 13.9231 13.1538 17.3846 27 17.3846V11.6154L38.5385 23.1538L27 34.6923V28.9231C13.1538 28.9231 2 25.4615 2 21.2308V9.69231Z" stroke="#FFC815" stroke-width="2.5" stroke-miterlimit="10" stroke-linecap="round" stroke-linejoin="round"/>
</svg>
